<svg xmlns="http://www.w3.org/2000/svg" viewBox="0 0 750 500"><g id="freepik--background-complete--inject-48"><path d="M669.64,396.51c10.88,10.66,12.71,27.14,10.42,41.58-.06.33-.57.24-.57-.07,0-3.28.1-6.54.09-9.79l-.17-.44a21.88,21.88,0,0,1-7.07-7.59c-1.82-3.58-2.53-7.61-3.92-11.35-.13-.35.25-.25.5-.06,6.62,4.88,8.73,10.13,10.63,17.16A58.91,58.91,0,0,0,678.4,415c-1.43-6.66-4.26-13.27-9-18.21C669.17,396.61,669.45,396.32,669.64,396.51Z" style="fill:#a6a6a6"></path><path d="M667.59,397.75c-1.87.06-3,3.06-4.5,3.93a1.4,1.4,0,0,1-2.07-.32c-1.45-2,.54-4.51,2.4-5.91-1.33.55-2.44,1.52-3.88,1.79a1.35,1.35,0,0,1-1.75-1.05c-.63-2.75,2.82-4,5.19-4-1.15-.8-4.44-3-2.69-4s5.63,2,6.89,3.06c1.85,1.5,4.06,3.74,4.14,6.09C671.43,400,669,398.33,667.59,397.75Z" style="fill:#dbdbdb"></path><path d="M668.13,398.21c-2.39-1.09-7,.48-7.38-.42-.79-1.85,2.88-3.11,4.87-3.36-1.83-.49-5.33-1.28-5.22-3.05.13-2.15,5.36-.3,8,1.74,3.34,2.56,3.31,5,2.76,5.52C670.42,399.32,668.53,398.39,668.13,398.21Z" style="fill:#ebebeb"></path><path d="M694.43,395.45c-11.29,10.24-13.74,26.64-12,41.16.05.33.56.26.57-.05.13-3.28.15-6.54.29-9.79l.18-.43a21.75,21.75,0,0,0,7.36-7.32c1.95-3.5,2.82-7.5,4.35-11.18.14-.36-.24-.27-.5-.09-6.8,4.63-9.11,9.8-11.28,16.74A58.74,58.74,0,0,1,685,413.61c1.68-6.6,4.76-13.1,9.73-17.86C694.89,395.57,694.62,395.27,694.43,395.45Z" style="fill:#a6a6a6"></path><path d="M696.42,396.77c1.87.14,2.93,3.17,4.36,4.1a1.39,1.39,0,0,0,2.07-.24c1.53-2-.36-4.53-2.17-6,1.31.6,2.38,1.6,3.81,1.93a1.35,1.35,0,0,0,1.79-1c.73-2.73-2.67-4.08-5-4.23,1.18-.75,4.55-2.8,2.84-3.93s-5.71,1.82-7,2.79c-1.91,1.43-4.2,3.59-4.37,5.93C692.5,398.89,695,397.29,696.42,396.77Z" style="fill:#dbdbdb"></path><path d="M695.87,397.21c2.43-1,7,.75,7.39-.14.86-1.82-2.76-3.22-4.73-3.54,1.84-.43,5.37-1.08,5.33-2.85-.05-2.15-5.36-.5-8.08,1.43-3.44,2.43-3.51,4.9-3,5.42C693.53,398.24,695.46,397.38,695.87,397.21Z" style="fill:#ebebeb"></path><path d="M682.89,422.48a111.4,111.4,0,0,1-3.5,16.19.4.4,0,0,1-.79-.16c.74-5,2.09-9.88,2.83-14.87a75,75,0,0,0,.87-15.27c-.48-8.4-2.76-17.34-8.24-23.91-.12-.16.13-.38.26-.24,11,12.81,9.23,28.5,9.22,29.91,1.55-5.3,3.15-11.38,9-16.77.26-.24.45-.13.41.27-1.05,9.83-3.78,15-9.48,20.22C683.34,419.4,683.14,421,682.89,422.48Z" style="fill:#a6a6a6"></path><path d="M674,385.93c-2-.88-4.7,1.64-6.66,1.81a1.63,1.63,0,0,1-2-1.38c-.48-2.82,2.83-4.41,5.47-4.91-1.66-.11-3.3.34-4.93-.1a1.57,1.57,0,0,1-1.29-2c.73-3.18,4.93-2.71,7.42-1.58-.79-1.4-3.12-5.31-.76-5.54s4.82,4.94,5.61,6.64c1.16,2.49,2.32,5.93,1.23,8.41C676.8,390.21,675.16,387.25,674,385.93Z" style="fill:#dbdbdb"></path><path d="M674.29,386.68c-1.94-2.33-7.5-3-7.45-4.16.11-2.31,4.56-1.78,6.74-1-1.65-1.44-4.88-4-3.88-5.79,1.22-2.17,5.72,2.39,7.45,5.83,2.17,4.34.91,6.9.08,7.13C676.11,389,674.61,387.07,674.29,386.68Z" style="fill:#ebebeb"></path><path d="M690.11,425.44l4.84,37H665.49c.61-3.28,6.09-37,6.09-37Z" style="fill:#dbdbdb"></path><circle cx="98.32" cy="331.27" r="39.51" style="fill:#ebebeb"></circle><circle cx="100.13" cy="332.15" r="37.7" transform="translate(-245.95 356.15) rotate(-77.19)" style="fill:#dbdbdb"></circle><circle cx="100.13" cy="332.15" r="35.32" transform="matrix(0.1, -1, 1, 0.1, -240.16, 399.61)" style="fill:#fff"></circle><path d="M134.64,324.65c-16.08,9.75-42.51,25.73-57.28,34.49a35.32,35.32,0,0,1-9.65-13l48.86-45.29A35.36,35.36,0,0,1,134.64,324.65Z" style="fill:#ebebeb;opacity:0.5"></path><path d="M135.42,333.38a35.3,35.3,0,0,1-2.33,11.48L89,365.69a35.15,35.15,0,0,1-5.56-2.39C96.78,355.61,121.09,341.62,135.42,333.38Z" style="fill:#ebebeb;opacity:0.5"></path><rect x="99.79" y="299.4" width="0.68" height="5.35" style="fill:#c7c7c7"></rect><rect x="84.75" y="303.42" width="0.68" height="5.35" transform="translate(-141.64 83.54) rotate(-30)" style="fill:#c7c7c7"></rect><rect x="73.74" y="314.43" width="0.68" height="5.35" transform="translate(-237.58 222.69) rotate(-60)" style="fill:#c7c7c7"></rect><rect x="67.38" y="331.81" width="5.35" height="0.68" style="fill:#c7c7c7"></rect><rect x="71.41" y="346.84" width="5.35" height="0.68" transform="translate(-163.68 83.57) rotate(-30)" style="fill:#c7c7c7"></rect><rect x="82.42" y="357.85" width="5.35" height="0.68" transform="translate(-267.7 252.93) rotate(-60.02)" style="fill:#c7c7c7"></rect><rect x="99.79" y="359.55" width="0.68" height="5.35" style="fill:#c7c7c7"></rect><rect x="114.83" y="355.52" width="0.68" height="5.35" transform="translate(-163.67 105.57) rotate(-30)" style="fill:#c7c7c7"></rect><rect x="125.83" y="344.51" width="0.68" height="5.35" transform="translate(-237.58 282.84) rotate(-60)" style="fill:#c7c7c7"></rect><rect x="127.53" y="331.81" width="5.35" height="0.68" style="fill:#c7c7c7"></rect><rect x="123.5" y="316.77" width="5.35" height="0.68" transform="translate(-141.69 105.62) rotate(-30.01)" style="fill:#c7c7c7"></rect><rect x="112.49" y="305.76" width="5.35" height="0.68" transform="translate(-207.54 252.97) rotate(-60.03)" style="fill:#c7c7c7"></rect><polygon points="100.64 301.82 101.8 334.53 98.45 334.49 99.73 301.81 100.64 301.82" style="fill:#c7c7c7"></polygon><polygon points="121.02 320.74 99.01 334.79 97.41 331.84 120.58 319.94 121.02 320.74" style="fill:#a6a6a6"></polygon><path d="M101.27,332.15a1.14,1.14,0,1,1-1.14-1.15A1.14,1.14,0,0,1,101.27,332.15Z" style="fill:#c7c7c7"></path><rect x="131.11" y="101.43" width="33.23" height="33.23" style="fill:#dbdbdb"></rect><rect x="136.27" y="106.58" width="22.93" height="22.93" style="fill:#fff"></rect><polygon points="136.27 129.51 136.27 106.58 159.19 106.58 136.27 129.51" style="fill:#ebebeb"></polygon><rect x="131.11" y="142.29" width="33.23" height="33.23" style="fill:#dbdbdb"></rect><rect x="136.27" y="147.44" width="22.93" height="22.93" style="fill:#fff"></rect><polygon points="136.27 163.64 136.27 147.44 152.46 147.44 136.27 163.64" style="fill:#ebebeb"></polygon><rect x="172.3" y="101.15" width="43.43" height="74.37" style="fill:#dbdbdb"></rect><rect x="177.67" y="106.58" width="32.69" height="63.52" style="fill:#fff"></rect><polygon points="177.67 148.22 177.67 106.58 199.1 106.58 177.67 148.22" style="fill:#ebebeb"></polygon><rect x="48.99" y="101.15" width="74.37" height="74.37" style="fill:#dbdbdb"></rect><rect x="54.42" y="106.58" width="63.51" height="63.52" style="fill:#fff"></rect><path d="M100.15,106.58c-9.6,9.65-36.83,37-45.73,45.8v-45.8Z" style="fill:#ebebeb"></path><polygon points="460.89 177.22 462.83 181.17 467.19 181.8 464.04 184.87 464.78 189.21 460.89 187.16 456.99 189.21 457.74 184.87 454.58 181.8 458.94 181.17 460.89 177.22" style="fill:#ebebeb"></polygon><polygon points="695.92 57.51 697.87 61.45 702.22 62.08 699.07 65.16 699.81 69.49 695.92 67.44 692.02 69.49 692.77 65.16 689.62 62.08 693.97 61.45 695.92 57.51" style="fill:#ebebeb"></polygon><polygon points="405.54 153.46 406.74 155.9 409.43 156.29 407.49 158.19 407.95 160.87 405.54 159.6 403.13 160.87 403.59 158.19 401.64 156.29 404.33 155.9 405.54 153.46" style="fill:#ebebeb"></polygon><polygon points="382.27 57.16 383.48 59.6 386.17 59.99 384.22 61.89 384.68 64.57 382.27 63.3 379.87 64.57 380.33 61.89 378.38 59.99 381.07 59.6 382.27 57.16" style="fill:#ebebeb"></polygon><polygon points="482.31 59.79 483.51 62.23 486.21 62.62 484.26 64.52 484.72 67.2 482.31 65.94 479.9 67.2 480.37 64.52 478.42 62.62 481.11 62.23 482.31 59.79" style="fill:#ebebeb"></polygon><polygon points="454.51 135.13 455.25 136.64 456.92 136.88 455.71 138.06 456 139.71 454.51 138.93 453.02 139.71 453.31 138.06 452.1 136.88 453.77 136.64 454.51 135.13" style="fill:#ebebeb"></polygon><path d="M455.85,153.76a17.91,17.91,0,1,1-19.51-26.36,16.75,16.75,0,1,0,19.51,26.36Z" style="fill:#ebebeb"></path><rect x="451.6" y="278.05" width="1" height="52.95" style="fill:#c7c7c7"></rect><polygon points="477.16 355.15 475.14 359.57 429.06 359.57 427.05 355.15 446.67 341.57 457.54 341.57 477.16 355.15" style="fill:#ebebeb"></polygon><polygon points="458.9 328.48 457.54 341.57 446.67 341.57 445.31 328.48 458.9 328.48" style="fill:#dbdbdb"></polygon><polygon points="477.15 355.15 475.14 359.58 429.06 359.58 427.05 355.15 477.15 355.15" style="fill:#dbdbdb"></polygon><rect x="505.73" y="253.46" width="1" height="57.86" style="fill:#c7c7c7"></rect><polygon points="531.28 335.46 529.27 339.89 483.19 339.89 481.18 335.46 500.8 321.88 511.67 321.88 531.28 335.46" style="fill:#ebebeb"></polygon><polygon points="513.03 308.8 511.67 321.88 500.8 321.88 499.44 308.8 513.03 308.8" style="fill:#dbdbdb"></polygon><polygon points="531.28 335.46 529.27 339.89 483.19 339.89 481.18 335.46 531.28 335.46" style="fill:#dbdbdb"></polygon></g><g id="freepik--character-4--inject-48"><path d="M713,463H402l-.06-.42L383,346.54l89.69-89.71.14,0c6.71-1.53,230.1-23.54,239.61-24.48l.55,0ZM402.8,462H712V233.37c-12.55,1.24-229.87,22.67-238.8,24.38l-89.13,89.13Z" style="fill:#dbdbdb"></path><path d="M540.41,362.87c11.64,8,94.75,38,133.06,25.95,13-4.08.35-63-12.69-90.61-7.13-15.08-43.93,2-45.33,11.75-1.1,7.68,10.57,36.84,9.7,37.21-4.06,1.74-51.49-2.62-80.06,1.72C530.38,351.12,531.44,356.74,540.41,362.87Z" style="fill:#c95f50"></path><path d="M624.55,343.79c.76,2.14,1.32,4.36,2,6.53s1.4,4.26,2.15,6.37c1.51,4.25,3,8.49,4.49,12.77.82,2.44,1.8,4.82,2.66,7.24,0,.08-.11.13-.15.06-1.1-2-2-4.05-3-6.1s-1.86-4.1-2.68-6.19a106.17,106.17,0,0,1-4-13,73.36,73.36,0,0,1-1.7-7.58A.13.13,0,0,1,624.55,343.79Z" style="fill:#263238"></path><path d="M545.82,364.49c13.9,11.36,52.9,25,52.9,25l1.48-11.17,4.94-36.94S573,341,552.38,342.64a44.42,44.42,0,0,0-7.22,1.09C532.61,346.77,533.84,354.73,545.82,364.49Z" style="fill:#FFC727"></path><path d="M580.9,347.4a15.31,15.31,0,0,1,.73,4.29,14.88,14.88,0,0,1-1.81-4,15.68,15.68,0,0,1-.73-4.29A15.69,15.69,0,0,1,580.9,347.4Zm7.27,11.53a17.05,17.05,0,0,0,8.26-2.54,16.77,16.77,0,0,0-8.26,2.54Zm1,14.33a15.51,15.51,0,0,0-2.52,3.55,15.25,15.25,0,0,0-1.52,4.08,16.75,16.75,0,0,0,4-7.63ZM539,347.75a15.63,15.63,0,0,0,4.24-1,15,15,0,0,0,3.84-2.06,15.44,15.44,0,0,0-4.24,1A15.7,15.7,0,0,0,539,347.75Zm28.5,8a15.37,15.37,0,0,0-2.29,3.7,15.07,15.07,0,0,0-1.27,4.17,16.89,16.89,0,0,0,3.56-7.87Z" style="fill:#fff"></path><path d="M545.82,364.49c13.9,11.36,52.9,25,52.9,25l1.48-11.17c-16.09-10.27-40.82-25.74-55-34.63C532.61,346.77,533.84,354.73,545.82,364.49Z" style="fill:#263238"></path><path d="M591,384.69c.65-6.71,4.27-34.1,5.45-40,.08-.41.35-.46.32,0-1.45,20.15-4.54,33.45-5.51,40C591.21,384.86,591,384.86,591,384.69Z" style="fill:#263238"></path><path d="M489.72,462.52H603.36c-.8-7-16.22-81.63-38.53-118.13-6.8-11.13-29.8-6.89-34.06-1.49C500.49,381.27,491.52,443.23,489.72,462.52Z" style="fill:#FFC727"></path><path d="M556.64,379.67a15.29,15.29,0,0,1,1,4.23,15,15,0,0,1-2.06-3.84,15.65,15.65,0,0,1-1-4.23A15.34,15.34,0,0,1,556.64,379.67Zm4.48,46.68a16.88,16.88,0,0,0,3,8.08,15.09,15.09,0,0,0-1-4.24A15.31,15.31,0,0,0,561.12,426.35Zm-44.48-16a15.44,15.44,0,0,0,1,4.24,15,15,0,0,0,2.05,3.84,16.88,16.88,0,0,0-3.05-8.08Zm70.17-.74a16.88,16.88,0,0,0,3.05,8.08,15.09,15.09,0,0,0-1-4.24A15.31,15.31,0,0,0,586.81,409.63Zm-54.08-14.95a16.88,16.88,0,0,0,8.08-3.05,15.09,15.09,0,0,0-4.24,1A15.66,15.66,0,0,0,532.73,394.68ZM517.64,441.4a16.88,16.88,0,0,0,8.08-3,15.09,15.09,0,0,0-4.24,1A15.33,15.33,0,0,0,517.64,441.4Zm54.31,12a15.65,15.65,0,0,0,4.23-1,15.31,15.31,0,0,0,3.84-2.05,14.93,14.93,0,0,0-4.23,1A15.34,15.34,0,0,0,572,453.42ZM539,347.75a15.63,15.63,0,0,0,4.24-1,15,15,0,0,0,3.84-2.06,15.44,15.44,0,0,0-4.24,1A15.7,15.7,0,0,0,539,347.75ZM526.87,358.3a15.37,15.37,0,0,0-2.29,3.7,15,15,0,0,0-1.27,4.17,17,17,0,0,0,3.56-7.87Zm-25.06,60.92a16.86,16.86,0,0,0-3.55,7.87,16.74,16.74,0,0,0,3.55-7.87Zm69.1-20.59a16.77,16.77,0,0,0-3.55,7.86,16.77,16.77,0,0,0,3.55-7.86ZM544.6,445.75a16.89,16.89,0,0,0-3.56,7.87,14.94,14.94,0,0,0,2.29-3.71A15.7,15.7,0,0,0,544.6,445.75Zm22.85-90a15.37,15.37,0,0,0-2.29,3.7,15.07,15.07,0,0,0-1.27,4.17,16.89,16.89,0,0,0,3.56-7.87Zm15.13,29.72a15.55,15.55,0,0,0-3.71-2.29,15.33,15.33,0,0,0-4.16-1.26,16.74,16.74,0,0,0,7.87,3.55Zm-78.36,68.91a15.55,15.55,0,0,0-3.71-2.29,15.33,15.33,0,0,0-4.16-1.26,15.07,15.07,0,0,0,3.7,2.29A15.29,15.29,0,0,0,504.22,454.37Zm91.58-18.84a16.74,16.74,0,0,0-7.87-3.55,16.86,16.86,0,0,0,7.87,3.55Zm-76.64-46.89a15.37,15.37,0,0,0-3.7-2.29,15,15,0,0,0-4.17-1.27,16.75,16.75,0,0,0,7.87,3.56Zm25.74,29.6a16.86,16.86,0,0,0-7.87-3.55,16.74,16.74,0,0,0,7.87,3.55Z" style="fill:#fff"></path><path d="M557.32,362.32c-6.81,1.71-18.68-8.56-23.43-17-.32-.57.48-6.7,1.11-14.19.36-4.55.65-9.62.59-14.26,0-1,3.25.75,3.25.75l6,1.37,20,4.55s-2.73,9.78-2.56,17.88a10.42,10.42,0,0,0,.22,1.91,2,2,0,0,1,0,.31C563.18,347.29,563.9,360.67,557.32,362.32Z" style="fill:#c95f50"></path><path d="M562.49,343.37a2,2,0,0,1,0,.31,18.51,18.51,0,0,1-3,.2c-19.63-.16-22.43-25.08-22.43-25.08l7.76.23,20,4.55s-2.73,9.78-2.56,17.88A10.42,10.42,0,0,0,562.49,343.37Z" style="fill:#263238"></path><path d="M529.19,290.78c-1.27,10.73,9.4,39.14,17.82,44.39,12.2,7.61,29.54,5.42,35.33-8.64,5.62-13.64-8.94-50.42-18.1-54.92C550.76,265,531.07,274.93,529.19,290.78Z" style="fill:#c95f50"></path><path d="M546.23,335s0,0,0,0" style="fill:none;stroke:#f6a89f;stroke-linecap:round;stroke-linejoin:round;stroke-width:0px"></path><path d="M560.52,305c0-.06-.11.15-.07.23.86,1.86,1.53,4.13.09,5.48,0,0,0,.13.06.09C562.56,309.66,561.63,306.65,560.52,305Z" style="fill:#263238"></path><path d="M558,303.78c-3.12,1.06-.77,7.23,2.12,6.25S560.62,302.9,558,303.78Z" style="fill:#263238"></path><path d="M572.14,300.32c0-.08.19,0,.21.11.67,1.94,1.76,4,3.73,4,.06,0,.09.09,0,.11C573.88,305.06,572.46,302.26,572.14,300.32Z" style="fill:#263238"></path><path d="M573.09,297.67c3-1.4,5.57,4.68,2.8,6S570.59,298.85,573.09,297.67Z" style="fill:#263238"></path><path d="M554.5,301.89a26.58,26.58,0,0,0,2.07-1.75,4.42,4.42,0,0,0,1.77-2.19,1.4,1.4,0,0,0-.81-1.5,3.48,3.48,0,0,0-3.39.91,5.07,5.07,0,0,0-2,3.1A1.49,1.49,0,0,0,554.5,301.89Z" style="fill:#263238"></path><path d="M574.29,293.66a24.05,24.05,0,0,1-2.69.3,4.39,4.39,0,0,1-2.8-.22,1.39,1.39,0,0,1-.53-1.62,3.46,3.46,0,0,1,3-1.84,5,5,0,0,1,3.59.72A1.49,1.49,0,0,1,574.29,293.66Z" style="fill:#263238"></path><path d="M564.16,321.65c.49.48,1,1.13,1.73,1.19a5.44,5.44,0,0,0,2.19-.54.08.08,0,0,1,.09.11,2.73,2.73,0,0,1-2.58,1.13,2.19,2.19,0,0,1-1.63-1.79C563.93,321.63,564.09,321.58,564.16,321.65Z" style="fill:#263238"></path><path d="M565.24,316.28a6.94,6.94,0,0,0,5.44,1.24,19.49,19.49,0,0,0,3.2-1.23.5.5,0,0,0,.22-.57l-1.68-4.05c.64.06,3.85.25,3.51-.5-2.8-6.22-5.91-13.14-10-18.73a.19.19,0,0,0-.33.18c2.45,6.08,6,11.69,8.52,17.76a12.05,12.05,0,0,0-3.42.24c-.19.14,2.19,4.9,2.19,4.95-2.35,1.25-4.5,1.21-7.53.47C565.17,316,565.06,316.17,565.24,316.28Z" style="fill:#263238"></path><path d="M572.2,316.49a8.31,8.31,0,0,1-2.38,3.43,3.71,3.71,0,0,1-2.11.82c-1.69.08-2.18-1.34-2.28-2.65a9.26,9.26,0,0,1,.11-2.1A10.67,10.67,0,0,0,572.2,316.49Z" style="fill:#263238"></path><path d="M569.82,319.92a3.71,3.71,0,0,1-2.11.82c-1.69.08-2.18-1.34-2.28-2.65C567.15,317.73,569.16,318.35,569.82,319.92Z" style="fill:#ff99ba"></path><path d="M537,314.71c5-1.54,1.44-13.73,1.44-13.73s7.35-3.27,8.51-14.74c0,0,11.41,3.77,19.33.22,12.41-5.56,7.9-22.36,2.19-24.6-8.09-3.18-18.62,6.95-18.62,6.95s-19.85-.6-22.29,13.33c0,0-8.19,2.41-6.51,11.7S533.33,315.86,537,314.71Z" style="fill:#263238"></path><path d="M537,302.87a17.63,17.63,0,0,0,8.4-7.69c1.85-3.6,2.22-8.52.15-12.1-.11-.2.22-.36.32-.16,2,4.07,2.81,8.54,1,12.84a12.3,12.3,0,0,1-9.72,7.48A.2.2,0,0,1,537,302.87Z" style="fill:#263238"></path><path d="M519.1,288.64c1.75-3.87,5.54-5.34,9.43-6.16.23-.05.29.32.07.35-3.91.5-7.11,4-8.32,7.58s.19,7.26,1.81,10.43a27.79,27.79,0,0,0,14.73,13.42.09.09,0,0,1-.06.17,27.84,27.84,0,0,1-16.43-14.63C518.8,296.43,517.48,292.21,519.1,288.64Z" style="fill:#263238"></path><path d="M549.52,269.55a13.07,13.07,0,0,1,5.79-7.23,15.62,15.62,0,0,1,11.05-1.56,8.82,8.82,0,0,1,6.3,6.19c1.1,3.46.27,7.18-1,10.43a.08.08,0,0,1-.15-.06A15.44,15.44,0,0,0,572,268a8.13,8.13,0,0,0-6.36-5.84c-5.91-1.05-13.62,1.26-15.77,7.55C549.78,269.88,549.45,269.76,549.52,269.55Z" style="fill:#263238"></path><path d="M539.79,313.59s-8.52-8.13-12.34-4.91,3.92,15.95,9.34,16.81a5.22,5.22,0,0,0,6.31-4.14Z" style="fill:#c95f50"></path><path d="M529.76,312.27c-.09,0-.08.13,0,.15,3.82.72,6.34,3.62,8.33,6.76-1.32-1.1-2.89-1.53-4.39.08-.08.08,0,.21.13.16a3.2,3.2,0,0,1,3.69.41,15,15,0,0,1,2.23,2.47c.23.28.77,0,.57-.34,0,0,0,0,0-.08C539.46,317.36,534.69,311.75,529.76,312.27Z" style="fill:#263238"></path><path d="M517.91,412.43q0,1.5.06,3c0,1.3.08,2.59.13,3.89,0,.12,0,.24,0,.36q.11,2.94.28,5.85c.29,5,.71,10,1.23,14.63,0,.31.07.61.11.91a133.64,133.64,0,0,0,4,21.45h60.82c-4.87-3.48-9.25-6.67-12.37-9.12l-.1-.08a26.86,26.86,0,0,1-4.58-4.13c-1.56-2.36-6.3-15.26-11.08-30.14a.49.49,0,0,0,0-.11,1.87,1.87,0,0,0-.07-.22c-.63-2-1.27-4-1.9-6.05,0-.16-.11-.33-.16-.5-3.27-10.6-6.34-21.52-8.15-29.91-2.15-10-4.85-16.69-7.67-20.84a15.52,15.52,0,0,0-4-4.22c-4.33-3-8.47-.69-10.84,4.22-2.6,5.37-4.28,15.11-5.12,26.69l0,.41C518,396,517.77,404.16,517.91,412.43Z" style="fill:#c95f50"></path><path d="M542.83,368.52c-9.57-27.39-21.61-21.71-25.47,3.93-3.61,24-3.41,53.85-3.41,53.85l46.27-8S549,386.05,542.83,368.52Z" style="fill:#FFC727"></path><path d="M537,414.69a16.74,16.74,0,0,0,7.87,3.55,16.74,16.74,0,0,0-7.87-3.55Zm-21.44-27.07a13.72,13.72,0,0,0,3.57,1,14.74,14.74,0,0,0-3.47-2.18C515.66,386.85,515.62,387.24,515.59,387.62Zm7.73-21.45a16.86,16.86,0,0,0,3.55-7.87,16.74,16.74,0,0,0-3.55,7.87Zm9.41,28.51a16.88,16.88,0,0,0,8.08-3.05,15.09,15.09,0,0,0-4.24,1A15.66,15.66,0,0,0,532.73,394.68Zm-16.09,15.69a16.88,16.88,0,0,0,3.05,8.08,15,15,0,0,0-1-4.24A15.31,15.31,0,0,0,516.64,410.37Z" style="fill:#fff"></path><path d="M546.27,376.92c1.3,3.6,2.71,7.16,4.1,10.72-.14-1.64-.2-3.27-.2-4.93a.06.06,0,0,1,.11,0c.12,1.3.29,2.6.39,3.9,0,.62.09,1.25.15,1.87,0,.14,0,.27,0,.4,1.08,2.78,2.15,5.56,3.16,8.37,1.2,3.35,2.31,6.73,3.44,10.1s2.07,7.45,3.37,10.88c.11.3-4.1.74-4.51.84s-.57-.33-.15-.33,3.91-1,4-1c-1.12-3.4-2.61-6.67-3.84-10s-2.45-6.69-3.6-10.06c-2.33-6.84-4.27-13.82-6.56-20.68C546.1,376.88,546.23,376.84,546.27,376.92Z" style="fill:#263238"></path><path d="M513.67,389.09c.27,1.38.59,2.76.79,4.16.08.57.15,1.15.23,1.72q.51-7,1.06-14c0-.06.08-.06.08,0-.18,7.67-.35,15.34-.67,23-.31,7.3-.31,14.79-1.37,22,.62,0,4.16-.43,4.19-.19a19.16,19.16,0,0,1-4.77.82c-.35-7.47.45-15.62.89-23.09.13-2.1.29-4.2.43-6.29-.11-1.33-.34-2.64-.55-3.95s-.31-2.8-.45-4.2A.07.07,0,0,1,513.67,389.09Z" style="fill:#263238"></path><path d="M516.54,419.68c6.56-1.56,33.64-7,39.58-7.79.41-.05.55.19.13.3-19.53,5.15-33.12,6.53-39.63,7.75C516.46,420,516.38,419.72,516.54,419.68Z" style="fill:#263238"></path><path d="M650.69,285.54c7.56,7.41,17.11,28.61,17.44,34.61s-35.16,23.42-40.7,20.7-29.07-29.62-30.37-40.35S642.85,277.87,650.69,285.54Z" style="fill:#c95f50"></path><path d="M622.62,337s-12.65-5.44-24.75-6.25c-10.18-.68-19.57-1.13-19.41-6.61.33-11.27,32.41-11,32.41-11s16.73,2.53,17.4,13.72C628.68,333.83,622.62,337,622.62,337Z" style="fill:#c95f50"></path><polygon points="603.77 323.12 605.68 322.64 606.75 326.93 610.56 325.98 609.49 321.69 611.4 321.21 612.47 325.5 616.3 324.54 615.22 320.25 617.13 319.78 618.2 324.07 622.02 323.11 620.95 318.82 622.85 318.35 623.92 322.63 670.83 310.9 662.14 276.12 615.22 287.86 616.29 292.13 614.39 292.61 613.32 288.33 609.5 289.29 610.57 293.56 608.67 294.04 607.6 289.76 603.78 290.72 604.85 295 602.93 295.47 601.87 291.2 598.05 292.15 599.12 296.43 597.21 296.9 596.14 292.63 584.59 295.52 578.26 315.57 593.28 330.3 604.84 327.41 603.77 323.12" style="fill:#ebebeb"></polygon><rect x="574.09" y="311.54" width="10.35" height="7.56" transform="translate(744.64 -323.13) rotate(75.96)" style="fill:#ebebeb"></rect><path d="M602.37,316.6c5.46,1.28,3.85-5.89,3.85-5.89s4.81,9.76,10.95,8.91c5.92-.84,3.66-9.43,3.51-10.05.26.52,4.91,9.37,11,7.88,6.33-1.56,2.58-9.8,2.34-10.33.4.41,5.73,5.73,10.1,3.54,7.49-3.75-6.46-18.1-5.71-28.88,0,0,9.65-3.06,10-3.14,0,0-10-6.65-19.22-6.75a5.85,5.85,0,0,0-5.84,4.43s-3.5-4.8-8.33-3.78c-2.48.53-3.83,5-3.83,5s-3-3.74-7.2-2.56c-3.38.93-4.21,5.23-4.21,5.23s-4.51-2.26-7.66-.19C585.73,284.16,590.69,313.84,602.37,316.6Z" style="fill:#c95f50"></path><path d="M599.51,280.84c0-.09-.15-.1-.15,0-.76,10.16,1.53,21.55,6.91,30.27.17.28.72.12.58-.23C603,300.83,600.43,291.61,599.51,280.84Z" style="fill:#263238"></path><path d="M611.08,277.37c0-.12-.2-.1-.21,0-.72,10.47,2.2,23.23,9.59,32.55.25.32.8.35.54,0C616.56,303.33,611.85,287.06,611.08,277.37Z" style="fill:#263238"></path><path d="M634.75,307.6c-6.74-9.22-9.84-19.66-11.49-30.84,0-.15-.22-.1-.24,0-.69,5.69,1.11,12.71,3,18.06a30,30,0,0,0,8.44,13C634.58,308,634.89,307.79,634.75,307.6Z" style="fill:#263238"></path><path d="M606.15,310.89c.21.34.48-.35.7,0,.94,1.41,7.31,9.44,10.72,8.12,2.73-1.07,3.2-5.47,2.71-7.24l-1.23-4.43,2.7,3.74a18.72,18.72,0,0,0,4.27,4.34,6.73,6.73,0,0,0,5.31,1.44,3.84,3.84,0,0,0,3.21-3.62,11.73,11.73,0,0,0-1.33-5.68l-2.37-4.9,3.82,3.84a17.87,17.87,0,0,0,3.57,2.77,7.24,7.24,0,0,0,4,1.16,3.45,3.45,0,0,0,3-2.09,7.59,7.59,0,0,0-.11-4.29,61.33,61.33,0,0,0-3.45-8.79c-.65-1.46-1.3-2.92-1.88-4.42a11.29,11.29,0,0,1-1-4.67,12.22,12.22,0,0,0,1.43,4.5c.68,1.43,1.44,2.83,2.19,4.24a51.85,51.85,0,0,1,4,8.79,9.07,9.07,0,0,1,.3,5.14,4.94,4.94,0,0,1-4.29,3.26,8.9,8.9,0,0,1-5-1.31,19.35,19.35,0,0,1-4-3l1.45-1.07a13.38,13.38,0,0,1,1.64,6.69,5.51,5.51,0,0,1-1.44,3.48,6.29,6.29,0,0,1-3.27,1.79,8.47,8.47,0,0,1-6.73-1.82,20.5,20.5,0,0,1-4.63-4.85l1.47-.69c.54,2.26.56,7.24-3.46,9.43C612.71,322.78,607.05,312.79,606.15,310.89Z" style="fill:#263238"></path><path d="M606.22,310.71a11.49,11.49,0,0,1-.43,3.42,3.21,3.21,0,0,1-1.92,2.2c-2.44.81-5-1.84-6.09-2.43a8.87,8.87,0,0,0,2.6,2.65,5.2,5.2,0,0,0,3.89,1,3.69,3.69,0,0,0,1.9-1.17,3.87,3.87,0,0,0,.81-2A6,6,0,0,0,606.22,310.71Z" style="fill:#263238"></path></g><g id="freepik--character-3--inject-48"><path d="M386.76,463H37V291.46l.43-.07,239.67-34.76.17.18L368,347.54ZM38,462h347.6L367.05,348l-90.33-90.33L38,292.32Z" style="fill:#dbdbdb"></path><path d="M256.05,276.41c-15.37,13.18-11.09,32.4-17.52,42.83-3.92,6.38-16.71,13.11-19.25,20.46-4.18,12.07,6.05,16.4,3.76,23-3.24,9.29-15.68,8.57-17.93,23.78s14.49,31.38,54.2,35.76,61.53-10.16,63-23.06S310.48,382,309.58,372.32c-.58-6.16,7.58-10.44,8-21.78s-10.63-15-12.21-24.63,3.51-33-10.63-45S263.64,269.91,256.05,276.41Z" style="fill:#263238"></path><path d="M257.83,276.76a32.7,32.7,0,0,0-10.2,11.77A71.68,71.68,0,0,0,242,304.14a43.61,43.61,0,0,1-3.08,9.35,24,24,0,0,1-5.34,6.58c-4.29,3.88-9.42,6.84-13.28,11.2-3.65,4.14-6.49,9.67-5,15.3.79,3.07,2.81,5.57,4.07,8.43,1.18,2.71,1.66,6.08-.66,8.33-2,1.92-4.87,2.8-7.12,4.38a24.91,24.91,0,0,0-5.79,5.62,19.4,19.4,0,0,0-3.66,15.27C204.4,401,216,408,226.69,412.4c1.49.62,3,1.22,4.49,1.82.23.09.43-.24.19-.35-10.74-4.81-23.2-10.45-27.33-22.45a18.12,18.12,0,0,1,1.86-15.94,22.85,22.85,0,0,1,5.67-6c2.16-1.6,4.65-2.58,6.85-4.09a7.32,7.32,0,0,0,3.37-6.53c-.13-2.9-1.55-5.43-2.95-7.89-1.49-2.61-2.74-5.24-2.53-8.32a15.93,15.93,0,0,1,3.17-7.93c3.34-4.74,8.29-7.84,12.73-11.43s8-7.76,9.66-13.36c.83-2.84,1.34-5.75,2-8.61a74.58,74.58,0,0,1,2.37-7.85,37.41,37.41,0,0,1,8.39-13.84A22.25,22.25,0,0,1,258,277C258.1,276.88,258,276.67,257.83,276.76Z" style="fill:#263238"></path><path d="M324,389.69a14.79,14.79,0,0,0-2.75-5.78c-1.38-1.75-3-3.23-4.58-4.84a11.37,11.37,0,0,1-3.25-5.37c-.5-2.53.56-5,1.75-7.15a54.45,54.45,0,0,0,3.56-6.92,24.84,24.84,0,0,0-2.49-22.17c-1.35-2.22-2.87-4.33-4.25-6.53a32.07,32.07,0,0,1-3.52-7.72c-1.78-6-2.17-12.28-3.63-18.34a95,95,0,0,0-6.45-18c-.07-.15-.28,0-.21.13a82.46,82.46,0,0,1,5.64,16.27c1.26,5.31,1.75,10.72,2.68,16.09a40.43,40.43,0,0,0,2,7.74,41,41,0,0,0,3.45,6.64c2.68,4.38,5.45,8.69,6.19,13.88a24.34,24.34,0,0,1-2.56,14.87c-2.09,3.94-5,8.3-3.19,12.92,1.55,3.91,5.28,6.26,7.76,9.5a15.7,15.7,0,0,1,2.69,12.55c-2.14,11.12-13.29,16.64-23.72,17.19a.26.26,0,0,0,0,.51c9.07-.11,18.94-4.1,23.19-12.59A19.14,19.14,0,0,0,324,389.69Z" style="fill:#263238"></path><path d="M267.55,367.12c-4.92,13.21-42.94,75.38-76.06,84.7-5.58,1.57-22.79,8.23-33.88-5.65-15-18.73-26.09-55.72-25.43-75.86.55-16.66,46.57-7.09,49.83,2.17,2.46,7,7.52,30.18,9,29.71,9.36-3.06,36.14-29.36,63.42-46.27C267,348.08,271.34,356.94,267.55,367.12Z" style="fill:#eb9481"></path><path d="M194.39,412.22c-.29-1.45-.66-2.89-1.09-4.3a47.26,47.26,0,0,0-3.41-7.87c-.06-.11-.27,0-.22.1,1.06,2.61,1.86,5.36,2.74,8,.43,1.33.85,2.67,1.24,4s.86,2.75,1.19,4.14a.08.08,0,0,0,.15,0C194.8,414.94,194.66,413.58,194.39,412.22Z" style="fill:#263238"></path><path d="M132.16,373.42s-.61-21.73,6.25-36.64c4.75-10.31,17.58-31.58,51.28-35,8-.81,20,3.7,7.38,9.77-8.93,4.31-15.89,4.35-20.63,7.8,0,0,14.54,7.54,15.05,15.58.22,3.6,1.24,11.35.45,19,0,0-2.36,2.34-4.59,2.39,0,0,.24,7.54-7.71,15.84Z" style="fill:#eb9481"></path><path d="M236.67,319.05c4.43,2.23,7.48,8.45,5,15.05s-10.93,6.86-15.26,4.65-8.51-8.55-5.86-14.74C222.81,318.64,228.9,315.13,236.67,319.05Z" style="fill:#c95f50"></path><path d="M235.65,320.81c3.62,1.83,6.11,6.91,4.07,12.3s-8.94,5.6-12.48,3.8-7-7-4.78-12C224.33,320.48,229.3,317.61,235.65,320.81Z" style="fill:#dd6a57"></path><path d="M229,324.51c-.26.26-1.43-.49-.9-1S229.38,324.16,229,324.51Z" style="fill:#FFC727"></path><path d="M227.29,330.6c.2.32-.82,1.27-1.16.64S227,330.18,227.29,330.6Z" style="fill:#FFC727"></path><path d="M224.54,328.66c0,.38-1.38.61-1.33-.1S224.56,328.17,224.54,328.66Z" style="fill:#FFC727"></path><path d="M228.79,322c-.38,0-.62-1.38.1-1.33S229.28,322,228.79,322Z" style="fill:#FFC727"></path><path d="M236,325.93c-.14-.35,1-1.13,1.25-.45S236.16,326.38,236,325.93Z" style="fill:#FFC727"></path><path d="M234,334c.28-.26,1.41.54.87,1S233.64,334.28,234,334Z" style="fill:#FFC727"></path><path d="M231.52,333.78c.36-.1,1,1.12.33,1.29S231.05,333.92,231.52,333.78Z" style="fill:#FFC727"></path><path d="M233.38,328.05c-.3-.24.32-1.48.87-1S233.77,328.35,233.38,328.05Z" style="fill:#FFC727"></path><path d="M240.91,328.06s-6.81.1-7.52,1.57,4.81,6.84,5.53,6.22S241.92,330.24,240.91,328.06Z" style="fill:#c95f50"></path><path d="M230.55,338.41s1.17-6.71-.14-7.68-7.61,3.45-7.14,4.28S228.23,339,230.55,338.41Z" style="fill:#c95f50"></path><path d="M220.52,327.59s6.76.77,7.65-.6-3.9-7.4-4.69-6.87S219.79,325.3,220.52,327.59Z" style="fill:#c95f50"></path><path d="M230.64,318.33s-.76,6.77.61,7.66,7.39-3.9,6.87-4.69S232.93,317.61,230.64,318.33Z" style="fill:#c95f50"></path><path d="M218.24,331.08c3.32.8,18.82,1.9,18.82,1.9l-.38-.67-16.85-3a.5.5,0,0,1-.41-.58.49.49,0,0,1,.58-.4l15.68,2.23-.62-1.09-17.27-3.32a.5.5,0,0,1,.17-1l16.09,2.56-.59-1L215.75,323a.5.5,0,1,1,.18-1l16.54,2.94-.5-.89s-16.75-4.15-18.68-4.28C209.84,319.55,213.23,329.86,218.24,331.08Z" style="fill:#455a64"></path><path d="M213.63,322.78c-2.35-.74-11.95-3.6-13.08-3.88-1.3-.32-47.55-11.91-49.31-11.75s-.22,6.11,1,7.26,44.43,7.37,48.81,8.51c4.63,1.2,13.34,3.57,13.34,3.57Z" style="fill:#455a64"></path><path d="M140.77,335.5c4.6-3.76,14.49-11.59,24.81-15.17,11.45-4,34.6-8.57,37.45-.08,2.09,6.22-6.59,8.75-6.59,8.75s10,.12,10.63,6.16c.6,5.5-6.24,7-6.24,7s6,1.11,5.59,6.52c-.53,6.51-13.08,3.11-19.31,9.23C185.71,359.34,140.77,335.5,140.77,335.5Z" style="fill:#eb9481"></path><path d="M167.77,333.14c4.91-2.84,17.71-6.41,28.48-4.31.25.05.34.26.11.26a119.48,119.48,0,0,0-28.56,4.15C167.74,333.26,167.71,333.17,167.77,333.14Z" style="fill:#263238"></path><path d="M172.12,344.59c4.49-2,17.85-5.11,28.7-2.6.24.05.32.27.09.26a127.15,127.15,0,0,0-28.76,2.45C172.09,344.71,172.06,344.61,172.12,344.59Z" style="fill:#263238"></path><path d="M347.21,462.52H231.42l2.26-19.19.46-4s-.37-.55-1-1.54c-.05-.1-.11-.2-.17-.3a53.68,53.68,0,0,1-3-6.23c0-.08-.07-.15-.1-.23-.22-.55-.43-1.11-.64-1.69l-.12-.33c-.42-1.18-.81-2.42-1.13-3.71-.08-.28-.14-.57-.21-.85s-.16-.72-.23-1.08a29.22,29.22,0,0,1-.6-6.89c0-.45,0-.91.09-1.36,0-.23,0-.45.08-.68,0,0,0,0,0,0s0-.23,0-.35a20.76,20.76,0,0,1,.72-3.09,50.55,50.55,0,0,1,2.48-6.38c.15-.35.32-.71.49-1.07h0c.49-1.05,1-2.12,1.58-3.22l.36-.7q.36-.7.75-1.41c.16-.32.33-.63.5-1l.48-.87a313.64,313.64,0,0,1,21.85-33.49,23.58,23.58,0,0,1,2-2.43,40.75,40.75,0,0,1,4-3.22h0a32.77,32.77,0,0,1,4.57-2.75,22.61,22.61,0,0,1,17.56-1.36,33.64,33.64,0,0,1,11.06,6.5c.81.68,1.63,1.41,2.45,2.2,0,0,.05,0,.05,0a83.16,83.16,0,0,1,11.35,14.17C325,399.83,339,437.69,347.21,462.52Z" style="fill:#455a64"></path><path d="M183,402.45c-4.7.54-3.08-5.48-7.35-6.16s-5.86,4-8.48,3.15-.4-5.47-5.67-5.85-6.92,6.81-10.21,8.28-10-1.8-11.16,4,10.46,8.43,18.65,13,16.93,11.36,24.59,11.36c8.2,0,12.09-5.1,18.39-5.54s20.43,4.32,26.9-.78,16.63-8.88,17.15-14.8-7.45-3.82-9.93-4.26-1.83-7-6.57-8.21-6.13,1.69-10.33,1.72-5.47-8.19-11.43-7.12-4.64,4.5-7.28,5.78-7.34-2.3-10.86-1S187.14,402,183,402.45Z" style="fill:#FFC727"></path><path d="M183,402.45c-4.7.54-3.08-5.48-7.35-6.16s-5.86,4-8.48,3.15-.4-5.47-5.67-5.85-6.92,6.81-10.21,8.28-10-1.8-11.16,4,10.46,8.43,18.65,13,16.93,11.36,24.59,11.36c8.2,0,12.09-5.1,18.39-5.54s20.43,4.32,26.9-.78,16.63-8.88,17.15-14.8-7.45-3.82-9.93-4.26-1.83-7-6.57-8.21-6.13,1.69-10.33,1.72-5.47-8.19-11.43-7.12-4.64,4.5-7.28,5.78-7.34-2.3-10.86-1S187.14,402,183,402.45Z" style="opacity:0.1"></path><path d="M201.65,407.53c4.83.54,3.16-5.48,7.55-6.16s6,4,8.72,3.15.41-5.47,5.82-5.85,7.12,6.81,10.5,8.28,10.25-1.8,11.47,4-10.75,8.43-19.17,13-17.4,11.36-25.27,11.36c-8.43,0-12.43-5.1-18.91-5.54s-21,4.32-27.65-.78-17.09-8.88-17.64-14.8,7.66-3.82,10.21-4.26,1.89-7,6.76-8.21,6.3,1.69,10.62,1.72,5.63-8.19,11.75-7.12,4.77,4.5,7.48,5.78,7.55-2.3,11.17-1S197.35,407.05,201.65,407.53Z" style="fill:#FFC727"></path><path d="M197.34,407.2c4.07-3.31,11.38-3.56,16.65,1.7s1.9,13.5-2.1,16.72-11.91,4.51-16.74-.72C191,420.37,190.21,413,197.34,407.2Z" style="fill:#c95f50"></path><path d="M198.61,408.94c3.32-2.7,9.29-2.91,13.6,1.39s1.54,11-1.72,13.66-9.73,3.69-13.67-.59C193.4,419.7,192.78,413.68,198.61,408.94Z" style="fill:#dd6a57"></path><path d="M199.31,416.91c.14.37-1.09,1.17-1.33.45S199.12,416.43,199.31,416.91Z" style="fill:#FFC727"></path><path d="M204.43,421.22c.4-.05.87,1.34.11,1.4S203.92,421.28,204.43,421.22Z" style="fill:#FFC727"></path><path d="M201.38,423c.35.17,0,1.59-.68,1.23S200.91,422.81,201.38,423Z" style="fill:#FFC727"></path><path d="M196.74,416.05c-.17.36-1.59,0-1.23-.67S197,415.58,196.74,416.05Z" style="fill:#FFC727"></path><path d="M203.67,410.83c-.4,0-.64-1.46.11-1.4S204.19,410.85,203.67,410.83Z" style="fill:#FFC727"></path><path d="M210.55,416.2c-.13-.37,1.13-1.12,1.34-.39S210.72,416.69,210.55,416.2Z" style="fill:#FFC727"></path><path d="M209.32,418.52c.05-.4,1.52-.51,1.38.24S209.25,419,209.32,418.52Z" style="fill:#FFC727"></path><path d="M204.6,414.25c-.36.18-1.29-.95-.6-1.27S205.05,414,204.6,414.25Z" style="fill:#FFC727"></path><path d="M207.86,407s-2.84,6.6-1.73,7.92,8.67-1.68,8.38-2.64S210.39,407,207.86,407Z" style="fill:#c95f50"></path><path d="M213.36,421.44s-6-4-7.46-3.17,0,8.83,1,8.72S212.92,423.94,213.36,421.44Z" style="fill:#c95f50"></path><path d="M198.6,426.45s3.66-6.19,2.73-7.64-8.81.57-8.65,1.56S196.09,426.16,198.6,426.45Z" style="fill:#c95f50"></path><path d="M194.05,412.7s6.19,3.65,7.64,2.72-.57-8.81-1.56-8.65S194.34,410.18,194.05,412.7Z" style="fill:#c95f50"></path><path d="M150.64,427.37c-5-1.55-9.28-7.49-7.83-14.8S153,403.5,157.88,405s10.37,7.4,8.7,14.32C165.13,425.35,159.42,430.08,150.64,427.37Z" style="fill:#c95f50"></path><path d="M151.38,425.35c-4.09-1.26-7.57-6.12-6.39-12.09s8.31-7.4,12.31-6.15,8.47,6.05,7.11,11.7C163.23,423.7,158.56,427.56,151.38,425.35Z" style="fill:#dd6a57"></path><path d="M157.62,420.34c.23-.32,1.58.25,1.12.86S157.33,420.76,157.62,420.34Z" style="fill:#FFC727"></path><path d="M158.36,413.69c-.26-.31.64-1.47,1.11-.87S158.7,414.08,158.36,413.69Z" style="fill:#FFC727"></path><path d="M161.57,415.22c0-.4,1.33-.88,1.4-.12S161.64,415.73,161.57,415.22Z" style="fill:#FFC727"></path><path d="M158.33,423c.4-.05.89,1.33.13,1.4S157.82,423,158.33,423Z" style="fill:#FFC727"></path><path d="M150.15,420.09c.2.33-.86,1.34-1.23.68S149.87,419.64,150.15,420.09Z" style="fill:#FFC727"></path><path d="M150.8,411.38c-.24.32-1.57-.31-1.08-.9S151.11,411,150.8,411.38Z" style="fill:#FFC727"></path><path d="M153.4,411.12c-.36.17-1.26-1-.56-1.29S153.87,410.89,153.4,411.12Z" style="fill:#FFC727"></path><path d="M152.48,417.42c.35.19-.08,1.59-.73,1.2S152,417.17,152.48,417.42Z" style="fill:#FFC727"></path><path d="M144.63,418.73s7.07-1.3,7.56-3-6.22-6.27-6.86-5.5S143.2,416.64,144.63,418.73Z" style="fill:#c95f50"></path><path d="M153.59,406.13s0,7.19,1.5,8,7.32-4.93,6.68-5.71S155.91,405.11,153.59,406.13Z" style="fill:#c95f50"></path><path d="M166,415.63s-7.18.39-7.87,2,5.37,7,6.1,6.33S167.11,417.88,166,415.63Z" style="fill:#c95f50"></path><path d="M157,427.05s-.4-7.18-2-7.87-7,5.37-6.33,6.1S154.78,428.21,157,427.05Z" style="fill:#c95f50"></path><path d="M184.5,414.8c-4,2.95-10.92,2.85-15.67-2.36s-1.18-12.86,2.75-15.72,11.47-3.73,15.8,1.43C191.13,402.63,191.51,409.64,184.5,414.8Z" style="fill:#c95f50"></path><path d="M183.39,413.1c-3.27,2.4-8.93,2.33-12.81-1.93s-1-10.51,2.25-12.85,9.37-3,12.9,1.18C188.8,403.15,189.11,408.88,183.39,413.1Z" style="fill:#dd6a57"></path><path d="M183.08,405.53c-.11-.36,1.08-1.06,1.28-.37S183.24,406,183.08,405.53Z" style="fill:#FFC727"></path><path d="M178.43,401.22c-.37,0-.76-1.31,0-1.33S178.92,401.18,178.43,401.22Z" style="fill:#FFC727"></path><path d="M181.41,399.64c-.33-.19.08-1.51.69-1.14S181.83,399.87,181.41,399.64Z" style="fill:#FFC727"></path><path d="M185.47,406.46c.18-.33,1.51.07,1.14.68S185.23,406.89,185.47,406.46Z" style="fill:#FFC727"></path><path d="M178.68,411.08c.38,0,.55,1.41-.17,1.32S178.19,411,178.68,411.08Z" style="fill:#FFC727"></path><path d="M172.42,405.68c.1.37-1.12,1-1.29.32S172.28,405.21,172.42,405.68Z" style="fill:#FFC727"></path><path d="M173.68,403.55c-.06.37-1.45.41-1.29-.29S173.77,403.07,173.68,403.55Z" style="fill:#FFC727"></path><path d="M178,407.8c.34-.16,1.17,1,.51,1.23S177.52,408,178,407.8Z" style="fill:#FFC727"></path><path d="M174.54,414.51s3-6.12,2-7.41-8.27,1.2-8,2.12S172.15,414.43,174.54,414.51Z" style="fill:#c95f50"></path><path d="M170,400.6s5.46,4.07,6.92,3.34.36-8.35-.59-8.3S170.52,398.26,170,400.6Z" style="fill:#c95f50"></path><path d="M184.18,396.53s-3.74,5.69-2.92,7.11,8.36-.14,8.25-1.09S186.55,396.92,184.18,396.53Z" style="fill:#c95f50"></path><path d="M187.86,409.75s-5.69-3.74-7.1-2.92.14,8.36,1.08,8.25S187.47,412.12,187.86,409.75Z" style="fill:#c95f50"></path><path d="M233,395.51c4.51,2.08,7.77,8.19,5.49,14.87s-10.69,7.23-15.09,5.18S214.57,407.31,217,401C219.12,395.58,225.08,391.86,233,395.51Z" style="fill:#c95f50"></path><path d="M232,397.31c3.68,1.7,6.34,6.69,4.48,12.15s-8.73,5.91-12.33,4.23S217,407,219,401.81C220.7,397.37,225.57,394.33,232,397.31Z" style="fill:#dd6a57"></path><path d="M225.54,401.23c-.26.27-1.45-.44-.94-1S225.87,400.87,225.54,401.23Z" style="fill:#FFC727"></path><path d="M224,407.38c.21.32-.78,1.29-1.14.67S223.74,407,224,407.38Z" style="fill:#FFC727"></path><path d="M221.19,405.54c0,.38-1.36.65-1.33-.06S221.19,405.05,221.19,405.54Z" style="fill:#FFC727"></path><path d="M225.2,398.69c-.37,0-.66-1.36.06-1.33S225.69,398.69,225.2,398.69Z" style="fill:#FFC727"></path><path d="M232.53,402.41c-.16-.35,1-1.16,1.23-.49S232.73,402.85,232.53,402.41Z" style="fill:#FFC727"></path><path d="M230.82,410.49c.27-.26,1.43.49.9,1S230.48,410.84,230.82,410.49Z" style="fill:#FFC727"></path><path d="M228.35,410.41c.35-.12,1.06,1.08.36,1.28S227.88,410.57,228.35,410.41Z" style="fill:#FFC727"></path><path d="M230,404.62c-.31-.23.27-1.49.83-1S230.4,404.91,230,404.62Z" style="fill:#FFC727"></path><path d="M237.53,404.37s-6.8.34-7.46,1.83,5,6.67,5.74,6S238.62,406.51,237.53,404.37Z" style="fill:#c95f50"></path><path d="M227.54,415.07s.94-6.75-.41-7.67-7.49,3.71-7,4.52S225.24,415.74,227.54,415.07Z" style="fill:#c95f50"></path><path d="M217.13,404.6s6.79.54,7.63-.86-4.15-7.26-4.93-6.71S216.33,402.34,217.13,404.6Z" style="fill:#c95f50"></path><path d="M226.93,395s-.53,6.79.87,7.64,7.26-4.16,6.7-4.94S229.2,394.2,226.93,395Z" style="fill:#c95f50"></path><polygon points="134.72 414.46 158.03 450.81 224.87 450.81 248.18 414.46 134.72 414.46" style="fill:#263238"></polygon><path d="M331.87,461.47c-.51.36-1,.71-1.57,1H226.88c-.85-3.82-1.58-7.84-2.12-11.71-1-7.05-1.38-13.6-.76-17.5a2.07,2.07,0,0,0,0-.22c.37-2.08,1-3.35,2.08-3.46s2-.18,3.1-.25l.64,0c2.56-.13,5.59-.2,8.91-.22,21-.17,54.08,1.49,57.63-.75,2.46-1.56-4.79-33.31-8.55-54.11a63.74,63.74,0,0,1-.91-6.79c-.82-11.16,3.57-11.3,8.57-7.82l.66.48a49.67,49.67,0,0,1,10.27,11.27c.93,1.42,1.91,3,2.92,4.67C324.16,400.62,346.75,450.93,331.87,461.47Z" style="fill:#eb9481"></path><path d="M235.88,462.52H166.39a10.92,10.92,0,0,1-2.11-4.12h0a.07.07,0,0,0,0-.05v0s-9.39-2.68-8.71-8.62a3.41,3.41,0,0,1,2.46-3c4.34-1.57,13.46,1.06,20.19-.15a216.41,216.41,0,0,0,24.86-6.4c5.45-1.69,10.67-3.45,15.18-5l5.8-2c2.32-.82,4.3-1.51,5.82-2,1-.33,1.75-.58,2.32-.74l0,.26.8,6.94.05.49.62,5.31Z" style="fill:#eb9481"></path><path d="M202.2,457.65c-6,1-11.88,2.05-18,2.19-6.7.15-13.17-.83-19.78-1.66a.16.16,0,0,0-.06.31,70.5,70.5,0,0,0,37.93-.32C202.59,458.08,202.51,457.6,202.2,457.65Z" style="fill:#263238"></path><path d="M202.43,440.55c2.46-1.53,1.67-2.83-3.44-3.4s-25.83,1.5-25.94-5.79,29.16-9.79,37.6-8.19,22,7.3,22,7.3C227,432.09,213.37,437.21,202.43,440.55Z" style="fill:#eb9481"></path><path d="M284,356.54c-.69,1.89-11.49,13.35-20.3,11.85-2.87-.49-.88-16.28-.88-16.28l-.12-1.2L261,334.13l20.7-10,3-1.29s.15,4.62.28,10.37c0,.27,0,.54,0,.82s0,.64,0,.94c0,.86.05,1.74.06,2.61,0,.67,0,1.32,0,2s0,1.38,0,2.08A110.07,110.07,0,0,1,284,356.54Z" style="fill:#eb9481"></path><path d="M285,333.24a33.79,33.79,0,0,1-22.28,17.67L261,334.13l20.7-10,3-1.29S284.84,327.49,285,333.24Z" style="fill:#263238"></path><path d="M289,320.62s7.76-8.18,11.56-5.28-3,15.43-8.13,16.51a5,5,0,0,1-6.23-3.66Z" style="fill:#eb9481"></path><path d="M298.55,318.89c.08,0,.07.11,0,.13-3.62.87-5.89,3.76-7.64,6.86,1.2-1.11,2.69-1.6,4.2-.14.08.08,0,.21-.12.17a3.07,3.07,0,0,0-3.51.56,15,15,0,0,0-2,2.47c-.21.28-.73,0-.56-.3a.25.25,0,0,1,0-.07C289.51,324.2,293.81,318.62,298.55,318.89Z" style="fill:#263238"></path><path d="M243.53,304.55c-6.91,28.78,9.55,36.17,15.75,37.66,5.64,1.34,25,5.21,34.84-22.7s-1.35-40.22-14.07-44S250.44,275.77,243.53,304.55Z" style="fill:#eb9481"></path><path d="M249.89,301.45a19.76,19.76,0,0,0,2-.09,3.32,3.32,0,0,0,2.07-.48,1.07,1.07,0,0,0,.21-1.27,2.63,2.63,0,0,0-2.44-1,3.91,3.91,0,0,0-2.6.94A1.13,1.13,0,0,0,249.89,301.45Z" style="fill:#263238"></path><path d="M270,305.45c-.67-.2-1.26-.49-1.91-.75a3.28,3.28,0,0,1-1.79-1.13,1.05,1.05,0,0,1,.21-1.27,2.62,2.62,0,0,1,2.64-.17,3.81,3.81,0,0,1,2.15,1.73A1.13,1.13,0,0,1,270,305.45Z" style="fill:#263238"></path><path d="M264.87,312.16c0-.07.13.13.12.21-.45,2-.62,4.29,1,5.29.06,0,0,.13,0,.11C263.87,317,264.13,314,264.87,312.16Z" style="fill:#263238"></path><path d="M267,310.43c3.23.37,2.26,6.8-.74,6.46S264.32,310.13,267,310.43Z" style="fill:#263238"></path><path d="M268.24,311c.51.44,1,1.17,1.63,1.34s1.46-.39,2.07-1c.07-.06.11,0,.1.09-.16,1.24-.83,2.43-2.18,2.41s-1.93-1.23-2.05-2.52C267.79,311.09,268,310.78,268.24,311Z" style="fill:#263238"></path><path d="M252.52,309.37c0-.08-.17.07-.18.15-.22,2-.81,4.26-2.71,4.67-.06,0-.07.11,0,.11C251.87,314.31,252.63,311.3,252.52,309.37Z" style="fill:#263238"></path><path d="M251,307c-3.18-.7-4.35,5.7-1.41,6.35S253.7,307.62,251,307Z" style="fill:#263238"></path><path d="M249.63,307.21c-.57.24-1.19.77-1.8.7s-1.1-.87-1.42-1.62c0-.08-.1,0-.11,0-.26,1.22-.09,2.57,1,3s2-.5,2.53-1.66C250,307.48,249.85,307.11,249.63,307.21Z" style="fill:#263238"></path><path d="M261.57,327.3c-.52.42-1.07,1-1.81,1a5.22,5.22,0,0,1-2.1-.73.07.07,0,0,0-.09.1A2.69,2.69,0,0,0,260,329a2.15,2.15,0,0,0,1.77-1.61C261.8,327.3,261.65,327.24,261.57,327.3Z" style="fill:#263238"></path><path d="M254.43,318.76s-.89,2.9-1.12,4.3c0,.13.31.25.78.36,0,0,0,0,0,0A6.75,6.75,0,0,0,261,322c.12-.12,0-.29-.18-.22a10.23,10.23,0,0,1-6.37.75c0-.41,1.7-4.93,1.48-5a12.7,12.7,0,0,0-3.3.2c1.69-6.1,4.35-11.88,5.94-18,.05-.22-.26-.34-.35-.15-3.21,5.86-5.31,12.84-7.22,19.1C250.78,319.48,253.83,318.9,254.43,318.76Z" style="fill:#263238"></path><path d="M254.37,322.92a8.23,8.23,0,0,0,2.75,3.16,3.68,3.68,0,0,0,2.18.57c1.69-.1,2-1.56,2-2.88a8.64,8.64,0,0,0-.34-2.07A10.66,10.66,0,0,1,254.37,322.92Z" style="fill:#263238"></path><path d="M257.12,326.08a3.68,3.68,0,0,0,2.18.57c1.69-.1,2-1.56,2-2.88C259.52,323.61,257.59,324.44,257.12,326.08Z" style="fill:#ff99ba"></path><path d="M292.08,321.15c-4.83-.62-3.84-10.82-3.84-10.82s-9.66-2-9.94-16.54a21.82,21.82,0,0,0,1.87,12.38s-16.65-5.37-20.84-21.12c0,0,1.34,7.86,3.48,11,0,0-6.72-3.48-9-10,0,0-4.7,7.6-7.47,9.39,0,0,6.93-29.65,33.87-20.71,0,0,17,4.76,20.39,19.74S292.08,321.15,292.08,321.15Z" style="fill:#263238"></path><path d="M282.63,352.21a38.32,38.32,0,0,1,16.12,10.47s-19.75,10.53-35.26,6.7c-7-1.73-9.79-13-9.79-13A36.38,36.38,0,0,1,282.63,352.21Z" style="fill:#eb9481"></path><path d="M255.92,363.66a40.38,40.38,0,0,1,3-6,39.49,39.49,0,0,1,3.88-5.52,45.87,45.87,0,0,1-6.89,11.55Z" style="fill:#455a64"></path><path d="M286.92,368.37a59.79,59.79,0,0,1-1.85-15.3,52.25,52.25,0,0,1,1.42,7.59A53.47,53.47,0,0,1,286.92,368.37Z" style="fill:#455a64"></path></g><g id="freepik--character-2--inject-48"><path d="M471.33,241.77l-89.55-89.54,0-.14L353.17,37H713V216.86l-.45,0c-2.34.23-234.6,23.35-241,24.8Zm-88.64-90.06,89,89C482.4,238.82,697.53,217.4,712,216V38H354.44Z" style="fill:#dbdbdb"></path><path d="M614.24,145.36c-19.48,27.66-56.36,55.14-69.72,57.18-6.29,1-19.36.4-26.3-8.23-15.16-18.86-24.85-51.51-24.88-69.24,0-6.3,46.57,1.53,48.64,7.94,5,15.58,5.32,17.06,7.16,17.25,6.82.67,34.78-11.73,55.88-23.93C630.64,111.52,622,134.33,614.24,145.36Z" style="fill:#d3766a"></path><path d="M530.76,75.5c-5.33,9.56-6,14.66-5.43,25.41,0,.21-.3.27-.33.06-1.53-10.48-1.6-17,5.32-25.75C530.65,74.79,531,75.05,530.76,75.5Z" style="fill:#263238"></path><path d="M519.72,72.47c-4.67,10.41-5.46,15.93-5.68,27.24,0,.16-.28.17-.29,0-.71-11.11-.63-17.62,5.41-27.4C519.43,71.88,519.93,72,519.72,72.47Z" style="fill:#263238"></path><path d="M540.32,137.42s5-12.75,6-18.83-3.73-30.13-9-29.4c-6.77.93-6.79,15.34-5.87,22.4,0,0-15.68,2.14-17.93,12.48S540.32,137.42,540.32,137.42Z" style="fill:#d3766a"></path><path d="M535.58,90.05c-5.57,5.31-3.77,14.5-3.4,21.41a.63.63,0,0,1-.79.68c-6.51,1.33-15.3,5.12-18.07,11.56a.16.16,0,0,1-.31-.1c2-7.32,10.37-11.74,17.6-12.74-.5-7.09-1.9-16.38,4.92-20.86A0,0,0,0,1,535.58,90.05Z" style="fill:#263238"></path><path d="M568.8,144.28l27.19,28s18.37-17.84,24.86-35.4-2.7-19.14-18.42-10.34S568.8,144.28,568.8,144.28Z" style="fill:#37474f"></path><path d="M576.25,142.12c1.65,1.14,14.91,14.39,23.59,24a.14.14,0,0,1-.19.21c-5.2-4-17.57-17-23.61-24.09C575.94,142.17,576.13,142,576.25,142.12Z" style="fill:#263238"></path><path d="M620.85,136.83C614.36,154.41,596,172.24,596,172.24l-18.16-18.66L615,121.48C622.38,120.26,625.32,124.8,620.85,136.83Z" style="fill:#263238"></path><path d="M509.4,68.14s-5.66-7.84-3.33-10.57,10.31,2.18,10.31,2.18,47.87-11.57,75.14-11.57,77.15,10,77.15,10,11-5.65,12.31-4-4.66,9-4.66,9,15,53.87,2,88.12c0,0,5.32,7.32,2.32,9s-9.31-2.33-9.31-2.33S635,169.56,595.51,170.23s-76.15-11-76.15-11-8,6.32-9.64,3.66,3-10,3-10S495.43,133.31,509.4,68.14Z" style="fill:#FFC727"></path><path d="M594.14,55.28c-20.59,3.22-47.7,39.53-44.29,59a54.68,54.68,0,0,0,56.88,45.49c27.36-1.59,41.58-42.69,38.91-59.84C641.91,76,611.17,52.62,594.14,55.28Z" style="opacity:0.1"></path><path d="M574.71,58.57c-9.82,13-10.45,32.22-10.45,32.22S556,111.23,560.49,121a18.85,18.85,0,0,0,13.67,11l-1.89-5.52s4.71,6.76,17.42,8S618.13,129.5,626,124a32.84,32.84,0,0,0,10.87-12.7l-2,8.69s11.87-2.12,17.15-15.81-17.66-29.06-19.94-32.74-8.55-32-38-22.79C594.09,48.67,581.48,49.61,574.71,58.57Z" style="fill:#263238"></path><path d="M569.7,131.85c-3.63-1.13-7-4.19-9.14-7.22a17.61,17.61,0,0,1-3.51-11c.18-4.75,2-9.19,3.85-13.51s4.08-8.82,5.86-13.32c.1-.25-.27-.39-.41-.18a107.66,107.66,0,0,0-6.07,10.92,50.71,50.71,0,0,0-4.48,11,19.05,19.05,0,0,0,.11,10.74,18.59,18.59,0,0,0,4.89,7.39c2.61,2.44,5.69,3.81,8.78,5.5C569.77,132.22,569.91,131.91,569.7,131.85Z" style="fill:#263238"></path><path d="M652.69,90.77c-5.11-10-15.54-15.37-22.61-23.74-3.83-4.54-7-9.71-11.71-13.45-.13-.1-.3.12-.18.22,3.89,3.42,6.48,7.82,9.53,11.94a77.41,77.41,0,0,0,10.72,11.15c7,6.32,15.34,13.77,15.4,24,0,4.72-2,10.23-6.52,12.35-.17.08,0,.36.15.26a15,15,0,0,0,7.09-9.48A19.05,19.05,0,0,0,652.69,90.77Z" style="fill:#263238"></path><path d="M653.53,93.55a19.66,19.66,0,0,0-4.26-11.06c-2.57-3.11-6.18-5.09-9.76-6.81-4.12-2-8.43-3.79-11.39-7.42-.12-.15-.33.06-.22.21,4.73,6,12.39,8,18.06,12.86,6.48,5.51,7.78,14.69,5,22.45a32.17,32.17,0,0,1-8.51,12.37c-.06.06,0,.16.1.1C649,110.56,654.22,102.49,653.53,93.55Z" style="fill:#263238"></path><path d="M695.92,218.12l-89.73,9.23-21.6,2.23.93-19s-9.24-6.64-10.47-20.46c-1.62-18.31,28.23-58.55,29.25-59.89a24.38,24.38,0,0,1,21.06-10c9,.38,17.91,8.07,18.6,8.71,14.85,13.84,47.22,78.47,51.94,89.17Z" style="fill:#455a64"></path><path d="M643.35,151.49a137.42,137.42,0,0,1-4.62,14.21q-1.2,3.17-2.59,6.56c-.92,2.22-1.89,4.51-2.92,6.84a.3.3,0,0,1,0,.08l-.15.36c-.88,2-1.79,4-2.75,6-1.44,3.1-3,6.23-4.55,9.35a233,233,0,0,1-19.31,32.15l-.23.3-21.6,2.23-39.16,4-.52-.3a207.39,207.39,0,0,1-22.72-15.62c-4.59-3.61-8.91-7.28-12.78-10.82-1.72-1.58-3.36-3.13-4.89-4.64a89.31,89.31,0,0,1-11.11-12.75,25.69,25.69,0,0,1-1.42-2.41c-1.2-2.39,6.16-6.58,15.56-10.32,13.53-5.38,31.3-9.83,33.92-6.66,2.83,3.44,11.64,10.81,19.7,16.38,1.81,1.24,3.58,2.4,5.23,3.39.85.52,1.67,1,2.44,1.41,2.93,1.58,5.29,2.46,6.53,2.17a6.85,6.85,0,0,0,1.88-.94,47,47,0,0,0,4.81-3.71c2.44-2.07,5.35-4.73,8.53-7.78,3.44-3.29,7.2-7,11-11,.25-.25.49-.51.75-.76a2.08,2.08,0,0,1,.21-.21l0,0,4.56-4.74.42-.44c1.58-1.67,3.16-3.35,4.72-5,4.15-4.46,8.15-8.87,11.68-12.91,6.39-7.31,11-10.71,14.12-11.59C645.37,132.34,645.35,143.55,643.35,151.49Z" style="fill:#d3766a"></path><path d="M515.48,131.56c-3-7.58-.7-20.06-6.75-19.58-5.4.43-6.16,9.23-6.16,9.23s-2.35-10.19-8-8.08S490,125.05,490,125.05s-2.65-9.26-8.16-6.74-5,11.71-5,11.71-2.13-2.14-5.22,1.38c-4.42,5-1.32,19.1,1.39,26.39,6.46,17.35,20,30.81,22.6,34.39l45.8-19.85s.22-15.23-.6-23-10.64-32.47-16.94-30.45.92,19.37,1.76,24-.09,5.62-2.09,3.82C522.26,145.56,516.81,134.92,515.48,131.56Z" style="fill:#d3766a"></path><path d="M502.74,121.64c-.19,12.33,1.86,17.76,8.18,28.13.13.2-.15.43-.29.23-7.12-9.59-10.67-16-8.48-28.4C502.25,121,502.75,121.05,502.74,121.64Z" style="fill:#263238"></path><path d="M490.16,124.53c.92,12.83,3.09,18.74,8.91,30.08.08.16-.18.32-.28.16-6.64-10.65-10-17.15-9.27-30.09C489.55,124.09,490.11,123.94,490.16,124.53Z" style="fill:#263238"></path><path d="M477,130.15c1.78,12.35,3.89,18.93,10.95,29.22a.23.23,0,0,1-.36.29c-8.23-9.79-10.91-18-11-29.42C476.62,129.46,476.88,129.37,477,130.15Z" style="fill:#263238"></path><path d="M560.5,185.89l-2.7-2.17c-1.79-1.45-3.58-2.91-5.35-4.39-3.56-3-6.93-6.17-10.44-9.21,0-.13-.28-4.19-.38-5.31,0-.06-.22-.11-.23,0a35.39,35.39,0,0,0-.09,5.82,103.52,103.52,0,0,0,10.59,9.49c1.8,1.44,3.63,2.84,5.51,4.18.94.66,1.89,1.32,2.84,2S561.48,186.67,560.5,185.89Z" style="fill:#263238"></path><path d="M598.64,166.71l33.51,19.95s13.11-22,14.82-40.65-7.58-17.78-20.47-5.2S598.64,166.71,598.64,166.71Z" style="fill:#37474f"></path><path d="M605.26,162.69c1.9.68,18.15,10,29,17.1a.14.14,0,0,1-.13.25c-6.06-2.5-21.38-11.86-29-17.13C605,162.81,605.14,162.64,605.26,162.69Z" style="fill:#263238"></path><path d="M602.59,168.91c-.1-.2-2.65-2.41-2.84-2.54.42-.33.79-.75,1.21-1.13.91-.84,1.83-1.68,2.72-2.53,2-1.9,3.94-3.82,5.85-5.79,3.74-3.86,7.36-7.91,11.27-11.59.16-.15-.09-.38-.25-.23-2,2-4.21,3.92-6.38,5.82.11-.24,1.51-3.58,1.8-4.14.1-.2-.22-.36-.3-.16-.23.58-2.85,5.33-2.95,5.56-1.36,1.19-2.73,2.38-4.08,3.58-2,1.77-3.93,3.58-5.86,5.42-.89.85-1.77,1.73-2.65,2.6-.66.66-2.5,2.63-2.53,2.65a46.21,46.21,0,0,0,4.75,2.84A.24.24,0,0,0,602.59,168.91Z" style="fill:#263238"></path><path d="M625.92,126.39c-.3,2-8.56,15.39-17.49,15.7-2.91.1-4.15-15.77-4.15-15.77l-.36-1.15-5-16.1,18.25-13.94,2.66-1.87s1.08,4.5,2.37,10.11c.06.26.12.52.18.8s.16.61.22.91q.31,1.26.6,2.55c.14.65.28,1.28.41,2s.27,1.35.42,2A110.3,110.3,0,0,1,625.92,126.39Z" style="fill:#d3766a"></path><path d="M622.19,103.37a33.82,33.82,0,0,1-18.27,21.8l-5-16.1,18.25-13.94,2.66-1.87S620.9,97.76,622.19,103.37Z" style="fill:#263238"></path><path d="M571.24,88.64c2.5,29.5,20.44,31.33,26.8,30.79,5.77-.5,25.37-2.92,25.93-32.51S610,49.16,596.77,49.6,568.74,59.15,571.24,88.64Z" style="fill:#d3766a"></path><path d="M576.3,83.69a19.16,19.16,0,0,0,1.91-.72A3.35,3.35,0,0,0,580,81.86a1.05,1.05,0,0,0-.2-1.27,2.62,2.62,0,0,0-2.64-.21A3.86,3.86,0,0,0,575,82.09,1.12,1.12,0,0,0,576.3,83.69Z" style="fill:#263238"></path><path d="M596.64,81.17a19.76,19.76,0,0,1-2-.11,3.31,3.31,0,0,1-2.07-.51,1.06,1.06,0,0,1-.19-1.27,2.62,2.62,0,0,1,2.45-1,3.91,3.91,0,0,1,2.59,1A1.13,1.13,0,0,1,596.64,81.17Z" style="fill:#263238"></path><path d="M581.25,90.12c0-.08-.13.12-.12.2.42,2,.57,4.3-1.11,5.28,0,0,0,.13,0,.11C582.19,95,582,91.92,581.25,90.12Z" style="fill:#263238"></path><path d="M577.45,91.78a2,2,0,0,1-.43.58,1.37,1.37,0,0,1-1.06.41c-1.22-.07-1.8-1.3-1.93-2.54,0-.08,0-.14.09-.08.53.6,1.15,1.23,1.85,1.08a2.54,2.54,0,0,0,1.18-.91A6.53,6.53,0,0,0,577.45,91.78Z" style="fill:#263238"></path><path d="M581.78,92.72a3.1,3.1,0,0,1-.44,1.62,2.28,2.28,0,0,1-1.52,1,2,2,0,0,1-1.74-.58,3.66,3.66,0,0,1-.84-1.42,6.48,6.48,0,0,1-.22-1,4.39,4.39,0,0,1,.13-2,6.53,6.53,0,0,0,.3,1.46A9.9,9.9,0,0,0,578,93c.41.82,1,1.46,1.72,1.31s1.18-.77,1.32-1.69a15,15,0,0,0,.11-2.87A6.51,6.51,0,0,1,581.78,92.72Z" style="fill:#263238"></path><path d="M592.82,88.82c0-.08.16.08.17.16.12,2,.6,4.3,2.47,4.8.06,0,.06.12,0,.11C593.21,93.79,592.61,90.75,592.82,88.82Z" style="fill:#263238"></path><path d="M596.92,89.41a2.35,2.35,0,0,0,.57.45,1.39,1.39,0,0,0,1.13.11c1.16-.39,1.39-1.74,1.19-3,0-.09-.07-.13-.11-.06-.35.73-.78,1.49-1.49,1.54a2.59,2.59,0,0,1-1.38-.57A6.82,6.82,0,0,1,596.92,89.41Z" style="fill:#263238"></path><path d="M593,91.47a3.12,3.12,0,0,0,.85,1.44,2.26,2.26,0,0,0,1.73.56,2.07,2.07,0,0,0,1.53-1,3.61,3.61,0,0,0,.43-1.59,6.44,6.44,0,0,0,0-1,4.36,4.36,0,0,0-.66-1.94,6.82,6.82,0,0,1,.09,1.49,9.47,9.47,0,0,1-.15,1.34c-.18.9-.61,1.69-1.31,1.72s-1.34-.43-1.73-1.28a15.58,15.58,0,0,1-.87-2.73A6.41,6.41,0,0,0,593,91.47Z" style="fill:#263238"></path><path d="M595.53,104.56c-.37.56-.71,1.3-1.41,1.52a5.54,5.54,0,0,1-2.22,0,.06.06,0,0,0-.06.11,2.69,2.69,0,0,0,2.73.53,2.15,2.15,0,0,0,1.17-2.08C595.74,104.49,595.58,104.48,595.53,104.56Z" style="fill:#263238"></path><path d="M586.06,98.69s.06,3,.29,4.44c0,.13.37.14.85.09,0,0,0,0,0,0a6.75,6.75,0,0,0,6.08-3.52.15.15,0,0,0-.24-.17,10.15,10.15,0,0,1-5.81,2.72c-.16-.37.06-5.21-.16-5.19a12.54,12.54,0,0,0-3.07,1.23c-.32-6.32.38-12.65,0-18.94a.19.19,0,0,0-.38,0c-1.21,6.57-1,13.86-.84,20.4C582.82,100.54,585.54,99,586.06,98.69Z" style="fill:#263238"></path><path d="M621.55,88.7c-7.21,1-13-20.72-13.72-23.39.34,1.71,2.13,10.74,1.5,11.22a7.21,7.21,0,0,1-2.32,0h0a22.53,22.53,0,0,0-.81-3.21c-.15-.49,0,1.13.05,3.14-.42,0-.88-.11-1.38-.15A26.53,26.53,0,0,0,603,69.49c-.35-.82.07,3.07-.18,6.58-5.17-.49-12.61-1-19.33-.12-1.79.24-3.33.52-4.69.82-.46-2.67-.64-5.58-.73-4.93a25.33,25.33,0,0,0-.27,5.16c-.74.17-1.41.34-2,.51-.82-3.76,0-10.1-.5-9.07a26.92,26.92,0,0,0-2.07,9.93c-2.5.94-3.12,1.57-3.31.91-.33-1.19-.65-12,6.28-21.19,7.52-10,25-15.11,37.32-3.83,0,0,9.22,4,12,12.51S625.72,88.14,621.55,88.7Z" style="fill:#263238"></path><path d="M618.37,89.12s4.8-10.2,9.32-8.64,2,15.58-2.52,18.22a5,5,0,0,1-7.07-1.51Z" style="fill:#d3766a"></path><path d="M626.87,84.48a.07.07,0,0,1,0,.12c-3.16,2-4.41,5.43-5.1,8.92.8-1.44,2-2.36,3.95-1.45.1.05,0,.2-.06.2a3.09,3.09,0,0,0-3.16,1.63,15.11,15.11,0,0,0-1.13,3c-.11.33-.69.26-.63-.11,0,0,0,0,0-.08C620,92.37,622.29,85.72,626.87,84.48Z" style="fill:#263238"></path><path d="M712.52,161.64v54.77l-.69.07-.56.06-.25,0-15.1,1.56-89.73,9.23-21.6,2.23-39.16,4-73.95,7.61-17-17s26.07-8.59,54.9-17.38c7-2.14,14.16-4.29,21.15-6.33l2.18-.64c10.26-3,20.06-5.33,29.6-7.32q3.27-.69,6.5-1.31c2.69-.54,5.36-1,8-1.53l5.2-1c13.66-2.45,27.13-4.61,41.12-7.47,3.1-.62,6.22-1.29,9.38-2l.62-.14.12,0,.51-.11,2.73-.62c11.77-2.66,24.5-5.5,36.11-8.06C694.57,165.52,712.52,161.64,712.52,161.64Z" style="fill:#FFC727"></path><path d="M687,170.23a.93.93,0,1,1-.93-.93A.93.93,0,0,1,687,170.23Zm16.91-.93a.93.93,0,1,0,.92.93A.93.93,0,0,0,703.9,169.3ZM560.49,193a.91.91,0,0,0,.73.36.92.92,0,0,0,.9-.7Zm18.57-1.49a.93.93,0,1,0,0,1.85.93.93,0,0,0,0-1.85Zm17.83,0a.93.93,0,1,0,.93.93A.93.93,0,0,0,596.89,191.48Zm17.83,0a.93.93,0,1,0,.93.93A.93.93,0,0,0,614.72,191.48Zm17.84,0a.93.93,0,1,0,.93.93A.93.93,0,0,0,632.56,191.48Zm17.83,0a.93.93,0,1,0,.93.93A.93.93,0,0,0,650.39,191.48Zm17.84,0a.93.93,0,1,0,0,1.85.93.93,0,0,0,0-1.85Zm17.83,0a.93.93,0,1,0,.93.93A.93.93,0,0,0,686.06,191.48Zm17.84,0a.93.93,0,1,0,0,1.85.93.93,0,0,0,0-1.85Zm-80.72-10.16c-.11,0-.22.05-.33.06a.91.91,0,0,0,.79.45.93.93,0,0,0,.92-.8C624.1,181.14,623.64,181.23,623.18,181.32Zm18.3-1.34a.93.93,0,1,0,0,1.85.93.93,0,0,0,0-1.85Zm17.83,0a.93.93,0,1,0,.93.93A.93.93,0,0,0,659.31,180Zm17.83,0a.93.93,0,1,0,.93.93A.92.92,0,0,0,677.14,180ZM695,180a.93.93,0,1,0,0,1.85.93.93,0,0,0,0-1.85Zm16.91.93a.91.91,0,0,0,.63.87V180A.91.91,0,0,0,711.89,180.91Zm-222,32.75a.93.93,0,1,0,.92.92A.92.92,0,0,0,489.89,213.66Zm17.83,0a.93.93,0,1,0,.93.92A.93.93,0,0,0,507.72,213.66Zm17.83,0a.93.93,0,1,0,.93.92A.92.92,0,0,0,525.55,213.66Zm17.84,0a.93.93,0,1,0,.92.92A.93.93,0,0,0,543.39,213.66Zm17.83,0a.93.93,0,0,0,0,1.85.93.93,0,1,0,0-1.85Zm17.84,0a.93.93,0,1,0,.92.92A.93.93,0,0,0,579.06,213.66Zm17.83,0a.93.93,0,1,0,.93.92A.93.93,0,0,0,596.89,213.66Zm17.83,0a.93.93,0,1,0,.93.92A.92.92,0,0,0,614.72,213.66Zm17.84,0a.93.93,0,1,0,.93.92A.93.93,0,0,0,632.56,213.66Zm17.83,0a.93.93,0,0,0,0,1.85.93.93,0,1,0,0-1.85Zm17.84,0a.93.93,0,1,0,.92.92A.93.93,0,0,0,668.23,213.66Zm17.83,0a.93.93,0,0,0,0,1.85.93.93,0,1,0,0-1.85Zm17.84,0a.93.93,0,1,0,.92.92A.92.92,0,0,0,703.9,213.66Zm-169.43-11.5a.93.93,0,0,0,0,1.85.93.93,0,1,0,0-1.85Zm17.84,0a.93.93,0,1,0,.92.92A.92.92,0,0,0,552.31,202.16Zm17.83,0a.93.93,0,1,0,.93.92A.93.93,0,0,0,570.14,202.16Zm17.83,0a.93.93,0,0,0,0,1.85.93.93,0,1,0,0-1.85Zm17.84,0a.93.93,0,1,0,.92.92A.93.93,0,0,0,605.81,202.16Zm17.83,0a.93.93,0,0,0,0,1.85.93.93,0,1,0,0-1.85Zm17.84,0a.93.93,0,1,0,.92.92A.93.93,0,0,0,641.48,202.16Zm17.83,0a.93.93,0,1,0,.93.92A.93.93,0,0,0,659.31,202.16Zm17.83,0a.93.93,0,0,0,0,1.85.93.93,0,1,0,0-1.85Zm17.84,0a.93.93,0,1,0,.92.92A.93.93,0,0,0,695,202.16Zm16.91.92a.92.92,0,0,0,.63.88v-1.75A.91.91,0,0,0,711.89,203.08ZM472.05,235.84a.93.93,0,0,0,0,1.85.93.93,0,1,0,0-1.85Zm17.84,0a.93.93,0,1,0,.92.92A.92.92,0,0,0,489.89,235.84Zm17.83,0a.93.93,0,0,0-.93.92.91.91,0,0,0,.43.78l1.16-.12a1,1,0,0,0,.27-.66A.93.93,0,0,0,507.72,235.84Zm-44.59-11.51a.93.93,0,1,0,.93.93A.93.93,0,0,0,463.13,224.33Zm17.84,0a.93.93,0,1,0,.92.93A.93.93,0,0,0,481,224.33Zm17.83,0a.93.93,0,1,0,.93.93A.93.93,0,0,0,498.8,224.33Zm17.84,0a.93.93,0,1,0,.92.93A.93.93,0,0,0,516.64,224.33Zm17.83,0a.93.93,0,1,0,.93.93A.93.93,0,0,0,534.47,224.33Zm17.84,0a.93.93,0,1,0,.92.93A.93.93,0,0,0,552.31,224.33Zm17.83,0a.93.93,0,1,0,.93.93A.93.93,0,0,0,570.14,224.33Zm17.83,0a.93.93,0,1,0,.93.93A.93.93,0,0,0,588,224.33Zm17.84,0a.93.93,0,1,0,.92.93A.93.93,0,0,0,605.81,224.33Zm17.83,0a.93.93,0,0,0-.92.93,1,1,0,0,0,.08.38l1.75-.18a1.36,1.36,0,0,0,0-.2A.93.93,0,0,0,623.64,224.33Z" style="fill:#fff"></path><path d="M449.22,219c10.45-3.62,89.21-26.94,106.15-31.16,7.55-1.89,20.12-4.11,34.67-6.68,17.47-3.09,37.27-6.58,50.87-10,25-6.28,69.22-15.06,71.61-15.53V176c-.57.11-42.22,8.36-66.73,14.51-14.29,3.6-34.46,7.16-52.26,10.31-13.6,2.4-26.44,4.67-33.32,6.38-16.69,4.16-85,23.89-95.29,27.46Z" style="fill:#FFC727"></path><path d="M449.22,219c10.45-3.62,89.21-26.94,106.15-31.16,7.55-1.89,20.12-4.11,34.67-6.68,17.47-3.09,37.27-6.58,50.87-10,25-6.28,69.22-15.06,71.61-15.53V176c-.57.11-42.22,8.36-66.73,14.51-14.29,3.6-34.46,7.16-52.26,10.31-13.6,2.4-26.44,4.67-33.32,6.38-16.69,4.16-85,23.89-95.29,27.46Z" style="opacity:0.1"></path></g><g id="freepik--character-1--inject-48"><path d="M37,275.89V37H337.7l29,116.76-87.77,87.79ZM38,38V274.73l240.46-34.14,87.15-87.15L336.92,38Z" style="fill:#dbdbdb"></path><path d="M166.37,151.2c8.28,11.42,53.88,48.49,94,50.06,13.63.53,32.66-45.42,38.13-68,2.37-9.81-45.23-22.09-48.39-14.58-4,9.46-10.13,34.6-12.09,35.29-3.05,1.06-33.59-11.56-62-17.09C161.47,134,160,142.41,166.37,151.2Z" style="fill:#ad6359"></path><path d="M239.88,150.18a87,87,0,0,0-5,11.79c-1.48,4.05-2.59,8.19-3.77,12.33,0,.09.13.13.16,0,1.33-4.06,3-8,4.46-12s3.24-7.91,4.57-12C240.43,150.09,240,149.94,239.88,150.18Z" style="fill:#263238"></path><path d="M306.16,102.12C306,113,297.07,140.44,292.83,145s-42.44-9.58-44.35-15.63S249.91,86.6,257,78,306.31,90.83,306.16,102.12Z" style="fill:#ad6359"></path><rect x="231.32" y="92.77" width="82.25" height="16.18" transform="translate(42.56 -76.76) rotate(17.38)" style="fill:#37474f"></rect><rect x="221.75" y="67.5" width="19.75" height="41.17" transform="translate(36.88 -65.15) rotate(17.38)" style="fill:#37474f"></rect><rect x="304.92" y="93.53" width="19.75" height="41.17" transform="translate(48.44 -88.8) rotate(17.38)" style="fill:#37474f"></rect><path d="M248.76,93.41c2.92,5,7.12-1.32,7.12-1.32S252,102.61,257,106.58c4.83,3.82,9.63-4,10-4.52-.2.56-3.5,10.32,1.93,13.79,5.65,3.61,9.14-5,9.36-5.59,0,.59-.19,8.34,4.53,10,8.13,2.92,9.12-16.9,14.49-21.37,0,0,8.55,3.82,8.85,4,0,0,1.39-14.42-5.05-21.33a6,6,0,0,0-7.45-1.2s1.09-6-3.1-8.9c-2.15-1.47-6.42.68-6.42.68s.68-4.87-3.21-7.19c-3.1-1.86-6.9.58-6.9.58s-1.51-5-5.29-5.84C261.12,58,242.52,82.73,248.76,93.41Z" style="fill:#ad6359"></path><path d="M273.38,65.87a.08.08,0,0,0-.1-.12c-8.11,6.66-15,16.45-17.66,26.66-.09.33.42.62.59.27C261,82.69,266,74.2,273.38,65.87Z" style="fill:#263238"></path><path d="M284.19,72c.08-.09-.07-.23-.17-.15-8.31,6.91-15.75,18.15-17.45,30.28-.06.42.31.85.41.37C268.73,94.56,277.52,79.49,284.19,72Z" style="fill:#263238"></path><path d="M278.47,111.15c2.08-11.57,7.66-21.3,14.83-30.48.1-.12-.08-.24-.19-.16-4.73,3.53-8.69,9.86-11.35,15a31,31,0,0,0-3.69,15.52C278.07,111.29,278.43,111.39,278.47,111.15Z" style="fill:#263238"></path><path d="M255.88,92.09a35.64,35.64,0,0,0-1.08,6.37,11.78,11.78,0,0,0,.91,6.11,3.89,3.89,0,0,0,2.06,1.88,5.68,5.68,0,0,0,2.85.29,6.89,6.89,0,0,0,4.47-3.42l2.43-4.06-.87,4.66a19.16,19.16,0,0,0-.2,6.27,6.93,6.93,0,0,0,2.7,5,4,4,0,0,0,5-.19,12,12,0,0,0,3.28-5l2-5.26-.14,5.59a18.49,18.49,0,0,0,.46,4.62,7.53,7.53,0,0,0,2,3.84,3.56,3.56,0,0,0,3.68.74,7.86,7.86,0,0,0,3.11-3.13,61.23,61.23,0,0,0,4.1-8.82c.63-1.52,1.26-3,2-4.54a11.89,11.89,0,0,1,2.76-4.08,12.67,12.67,0,0,0-2.34,4.26c-.58,1.53-1.09,3.09-1.6,4.65a52.73,52.73,0,0,1-3.72,9.23,9.22,9.22,0,0,1-3.61,3.87,5.07,5.07,0,0,1-5.48-.88,9.15,9.15,0,0,1-2.61-4.7,20.14,20.14,0,0,1-.6-5.14l1.83.33a13.8,13.8,0,0,1-3.82,6,5.72,5.72,0,0,1-3.62,1.39,6.52,6.52,0,0,1-3.66-1.16,8.77,8.77,0,0,1-3.42-6.31,21,21,0,0,1,.33-6.9l1.56.6a8.26,8.26,0,0,1-5.75,3.94,7,7,0,0,1-3.5-.55,5,5,0,0,1-2.53-2.51,12.09,12.09,0,0,1-.55-6.63A29.6,29.6,0,0,1,255.88,92.09Z" style="fill:#263238"></path><path d="M248,123s-17.62-42.76,2.47-41.46c6,.39,30,9.1,28.36,14-2.14,6.28-12.86,4.51-19.41,2.34,0,0,8,13.7.17,22.15C254.61,125.26,248,123,248,123Z" style="fill:#ad6359"></path><path d="M248.74,81.51a24.46,24.46,0,0,1,7,.65,53.84,53.84,0,0,1,6.8,2,81.23,81.23,0,0,1,13,5.77,13.19,13.19,0,0,1,3,2.28A4.93,4.93,0,0,1,279.64,94a3.71,3.71,0,0,1,.2,1.17,3.57,3.57,0,0,1-.2,1.16A6,6,0,0,1,277,99.48a11.15,11.15,0,0,1-3.66,1.23,21.48,21.48,0,0,1-7.3-.26,48.69,48.69,0,0,1-6.9-1.85l.95-1.21a28.57,28.57,0,0,1,2.11,5,26.33,26.33,0,0,1,1.13,5.27,18.16,18.16,0,0,1-.25,5.36,13.92,13.92,0,0,1-2,4.92,15.64,15.64,0,0,0,1.41-5,18.44,18.44,0,0,0-.21-5.14,25.33,25.33,0,0,0-1.36-5,26.68,26.68,0,0,0-2.25-4.58l-1.11-1.79,2.07.58a50.82,50.82,0,0,0,6.7,1.57,20.54,20.54,0,0,0,6.67.17c2.08-.34,4.21-1.35,4.78-3.07.62-1.47-1.38-3.08-3.24-4.24a67.91,67.91,0,0,0-6.08-3.28c-2.09-1-4.19-2-6.34-2.92C257.82,83.57,253.43,81.81,248.74,81.51Z" style="fill:#263238"></path><path d="M222.93,249l-113.8,16.16c.06-.25.13-.57.23-1q.06-.3.15-.66c1.66-7.07,13.32-78.32,43.39-121.22,1.84-2.62,8-7.59,10.38-8.49,6.53-2.44,13.11-.53,19.22,3.76.08.06,12.71,12.57,25.16,47.63C216.32,209.6,221.27,238.1,222.93,249Z" style="fill:#FFC727"></path><path d="M216.41,215.56,197,224.73v-9.5l17.34-8.17C215.05,209.94,215.76,212.78,216.41,215.56Z" style="fill:#455a64"></path><path d="M220.52,234.92l-20.26,9.55V235l18.54-8.74C219.44,229.31,220,232.22,220.52,234.92Z" style="fill:#455a64"></path><path d="M151.86,221.74v9.5l-31.35-14.77q1.17-4.09,2.48-8.34Z" style="fill:#455a64"></path><path d="M148.54,241.49V251l-33-15.56c.65-2.7,1.36-5.54,2.12-8.48Z" style="fill:#455a64"></path><path d="M186.23,155.2c-7-.21-22.78-10.51-26.46-19.43-.25-.61,1.3-6.59,2.85-14,.91-4.47,1.83-9.46,2.34-14.08L193.16,118s-3.91,9.37-4.75,17.43a11.22,11.22,0,0,0,0,1.92C188.4,137.4,186.23,155.2,186.23,155.2Z" style="fill:#ad6359"></path><path d="M188.41,135.39a11.22,11.22,0,0,0,0,1.92c0,.09,0,.2,0,.32h0a18.07,18.07,0,0,1-3-.17c-16-2.13-18.81-22.29-19.28-29.3l7.78,2.82h0l19.24,7S189.25,127.33,188.41,135.39Z" style="fill:#263238"></path><path d="M165.49,75.63c-4,10.05-1,40.25,5.83,47.48,9.84,10.48,27.16,12.81,36.37.71,8.92-11.74,4.29-51-3.41-57.72C193,56.24,171.37,60.79,165.49,75.63Z" style="fill:#ad6359"></path><path d="M170.61,122.76s0,0,0,0" style="fill:none;stroke:#ad6359;stroke-linecap:round;stroke-linejoin:round;stroke-width:0px"></path><path d="M188.22,96.16c0-.08-.15.11-.14.19.26,2,.21,4.4-1.56,5.25-.06,0,0,.13,0,.11C188.76,101.18,188.79,98,188.22,96.16Z" style="fill:#263238"></path><path d="M186.2,94.2c-3.29.07-2.93,6.66.13,6.6S189,94.15,186.2,94.2Z" style="fill:#263238"></path><path d="M199.85,95c0-.08.16.09.16.17.05,2,.45,4.38,2.34,5,.06,0,.06.13,0,.12C200.07,100.07,199.57,97,199.85,95Z" style="fill:#263238"></path><path d="M201.55,92.79c3.27-.44,3.89,6.13.87,6.53S198.81,93.15,201.55,92.79Z" style="fill:#263238"></path><path d="M183.43,91.34a25.08,25.08,0,0,0,2.51-1,4.36,4.36,0,0,0,2.34-1.54,1.4,1.4,0,0,0-.31-1.68,3.47,3.47,0,0,0-3.51-.16,5.05,5.05,0,0,0-2.8,2.36A1.49,1.49,0,0,0,183.43,91.34Z" style="fill:#263238"></path><path d="M203.91,89.33a26.47,26.47,0,0,1-2.65-.54,4.34,4.34,0,0,1-2.61-1.06,1.38,1.38,0,0,1,0-1.7,3.44,3.44,0,0,1,3.4-.84A5.06,5.06,0,0,1,205.25,87,1.5,1.5,0,0,1,203.91,89.33Z" style="fill:#263238"></path><path d="M187.51,114.53c.52.45,1,1.08,1.78,1.1a5.39,5.39,0,0,0,2.17-.64c.06,0,.13,0,.09.1a2.73,2.73,0,0,1-2.52,1.26,2.17,2.17,0,0,1-1.71-1.72C187.28,114.52,187.43,114.46,187.51,114.53Z" style="fill:#263238"></path><path d="M189.31,108.3a7,7,0,0,0,4.82,2.83,8.39,8.39,0,0,0,2.5,0,2.41,2.41,0,0,0,.48-.08l.44-.09a.49.49,0,0,0,.38-.48h0a.71.71,0,0,0,0-.21V110c0-1.57-.33-4-.33-4,.59.25,3.59,1.41,3.5.59-.79-6.78-1.66-14.31-3.88-20.88a.19.19,0,0,0-.37.07c.5,6.54,2.15,13,2.75,19.51a11.92,11.92,0,0,0-3.34-.81c-.22.07.64,4.59.6,5.3a.32.32,0,0,1,0,.07c-2.62.49-4.65-.2-7.32-1.83C189.34,108,189.18,108.14,189.31,108.3Z" style="fill:#263238"></path><path d="M206.13,75C196.87,83,182,74.1,182,74.1a11,11,0,0,1-10.3,8.13s-.09,17.19-4.56,17.65c-6.83.72-11.5-22.19-9.86-27s7.3-6.59,7.3-6.59,0-3.58,3.89-7.27C172.73,55,189.33,58,189.33,58a15,15,0,0,1,3.5-6,4.24,4.24,0,0,1,6.13-.12,10.07,10.07,0,0,0-1.17,4.37c-.25,5.06,3.81,4.6,3.27.1a7.08,7.08,0,0,0-2.1-4.47c1.68-3.16,4.84-4.49,7-3.13C209.88,51.19,213.84,68.35,206.13,75Z" style="fill:#263238"></path><path d="M165.31,66.16a24.26,24.26,0,0,0-4.28,1,11,11,0,0,0-3.34,2,8.53,8.53,0,0,0-2.92,7.08,39.13,39.13,0,0,0,1.52,8.16,36.62,36.62,0,0,0,2.85,7.37,23.16,23.16,0,0,0,5.33,6.9.13.13,0,0,0,.18-.19,32,32,0,0,1-7.13-13,57.57,57.57,0,0,1-1.6-7.23,12,12,0,0,1-.09-4.5,7.61,7.61,0,0,1,1.61-3.24,13.59,13.59,0,0,1,7.92-4.26C165.45,66.3,165.41,66.14,165.31,66.16Z" style="fill:#263238"></path><path d="M182.31,72.6a.08.08,0,1,0-.16,0,10.26,10.26,0,0,1-3.27,7.62,8.49,8.49,0,0,1-4.13,1.91,25.62,25.62,0,0,1-5.18.05c-.11,0-.11.15,0,.18a12.06,12.06,0,0,0,5.65.59,7.65,7.65,0,0,0,4.3-2A10.26,10.26,0,0,0,182.31,72.6Z" style="fill:#263238"></path><path d="M169.88,100.4s-6.15-10.05-10.67-7.91-.3,16.42,4.71,18.64a5.24,5.24,0,0,0,7.17-2.38Z" style="fill:#ad6359"></path><path d="M160.52,96.55c-.08,0-.1.11,0,.14,3.52,1.68,5.21,5.13,6.32,8.67-1-1.4-2.4-2.21-4.26-1-.1.06,0,.21.08.2a3.2,3.2,0,0,1,3.47,1.34,15.9,15.9,0,0,1,1.52,3c.15.33.74.19.64-.18l0-.09C168.6,104,165.42,97.32,160.52,96.55Z" style="fill:#263238"></path><path d="M160.82,163.17c-3.42,12.71-24.37,73-34.67,90.12-11.41,19-35.25,10.83-35.82-6.92-.89-27.85,33.65-74.49,57.4-100.18C163.37,129.27,164.34,150.09,160.82,163.17Z" style="fill:#ad6359"></path><rect x="66.47" y="165.33" width="82.25" height="16.18" transform="translate(5.05 -3.03) rotate(1.65)" style="fill:#37474f"></rect><rect x="54.96" y="151.6" width="19.75" height="41.17" transform="translate(4.99 -1.8) rotate(1.65)" style="fill:#37474f"></rect><rect x="142.08" y="154.12" width="19.75" height="41.17" transform="translate(5.1 -4.31) rotate(1.65)" style="fill:#37474f"></rect><path d="M86.29,145.55c4.77-1.77,8,2.39,8,2.39a10.86,10.86,0,0,1,6.23-3.94c4.4-.76,7.52,5.81,7.52,5.81a13.41,13.41,0,0,1,7.24-3.11c4.29-.3,8.38,5.88,8.38,5.88a11.74,11.74,0,0,1,8.09,1.27c6.41,4,6.48,15.46,6.6,22.77s-6.38,28.16-7.22,32.26l-46.92,1.18s-9.87-32.63-8.79-41.25C76.33,161.55,80.94,147.54,86.29,145.55Z" style="fill:#ad6359"></path><path d="M81.64,201.1c1.09,27.43,7.08,63.82,24.86,62.94,16.19-.81,22.94-32.24,25.86-59.92Z" style="fill:#ad6359"></path><path d="M93.54,148.29c-2.82,7.48-3.27,15.4-4.16,23.27a.14.14,0,0,0,.27,0c.8-7.84,3.15-15.42,4.26-23.21A.19.19,0,0,0,93.54,148.29Z" style="fill:#263238"></path><path d="M107.43,150a21.29,21.29,0,0,0-.72,5.4q-.18,2.9-.27,5.8c-.12,3.86-.15,7.73-.07,11.6,0,.17.27.21.28,0,.12-3.85.3-7.71.59-11.55q.23-2.89.48-5.77A24.9,24.9,0,0,0,108,150,.28.28,0,0,0,107.43,150Z" style="fill:#263238"></path><path d="M123.65,152.74c-.57,1.47-.37,3.35-.39,4.91,0,1.76-.05,3.52-.08,5.28-.08,3.53-.15,7-.35,10.57,0,.18.26.21.27,0,.22-3.57.49-7.15.68-10.72.09-1.76.17-3.52.24-5.27.06-1.5.31-3.36-.19-4.8A.1.1,0,0,0,123.65,152.74Z" style="fill:#263238"></path><path d="M138.68,171.47a44.37,44.37,0,0,0-1.67-11c-.07-.22-.44-.18-.41.07.31,3.26.76,6.5.91,9.78a68.9,68.9,0,0,1-.27,9.85,70.06,70.06,0,0,1-1.62,9.66c-.76,3.21-1.84,6.32-2.74,9.5a89.38,89.38,0,0,0-2.22,9.72c-.55,3.29-1,6.6-1.39,9.91a169.45,169.45,0,0,1-3,18.47,62.5,62.5,0,0,1-3.08,9.61,39.22,39.22,0,0,1-4.84,8.85c-.06.08.06.18.12.1a48.35,48.35,0,0,0,4.77-7.48c.64-1.31,1.21-2.65,1.74-4,0,.15-.07.3-.11.45a48.36,48.36,0,0,1-1.45,5.27s.07.08.09,0a33.85,33.85,0,0,0,1.94-5.17,22.69,22.69,0,0,0,.57-3.54c.14-.41.28-.82.4-1.24a118,118,0,0,0,3.76-18.44c.92-6.67,1.76-13.38,3.32-19.94.77-3.26,1.94-6.4,2.84-9.62a64,64,0,0,0,1.92-9.78A67.24,67.24,0,0,0,138.68,171.47Z" style="fill:#263238"></path></g><g id="freepik--Texts--inject-48"><path d="M341.29,231.52v-11.8a1.1,1.1,0,0,1,1.1-1.1h2.84a3.8,3.8,0,0,1,3,6.08,4.28,4.28,0,0,1-2.26,7.92h-3.54a0,0,0,0,1,0,0s0,0-.06,0A1.11,1.11,0,0,1,341.29,231.52Zm2.22-7.48h1.72a1.6,1.6,0,0,0,1.58-1.62,1.57,1.57,0,0,0-1.58-1.58h-1.72Zm0,6.36H346a2.07,2.07,0,0,0,0-4.14h-2.5Z" style="fill:#FFC727"></path><path d="M364.21,220.36a7.35,7.35,0,0,1,0,10.12,6.55,6.55,0,0,1-4.78,2.14,6.75,6.75,0,0,1-4.9-2.14,7.46,7.46,0,0,1,0-10.12,6.67,6.67,0,0,1,4.9-2.14A6.48,6.48,0,0,1,364.21,220.36Zm-.26,5.06a5.18,5.18,0,0,0-1.36-3.5,4.32,4.32,0,0,0-6.4,0,5.09,5.09,0,0,0-1.36,3.5,5,5,0,0,0,1.36,3.48,4.28,4.28,0,0,0,6.4,0A5.09,5.09,0,0,0,364,225.42Z" style="fill:#FFC727"></path><path d="M381,220.36a7.35,7.35,0,0,1,0,10.12,6.55,6.55,0,0,1-4.78,2.14,6.75,6.75,0,0,1-4.9-2.14,7.46,7.46,0,0,1,0-10.12,6.67,6.67,0,0,1,4.9-2.14A6.48,6.48,0,0,1,381,220.36Zm-.26,5.06a5.18,5.18,0,0,0-1.36-3.5,4.32,4.32,0,0,0-6.4,0,5.09,5.09,0,0,0-1.36,3.5A5,5,0,0,0,373,228.9a4.28,4.28,0,0,0,6.4,0A5.09,5.09,0,0,0,380.75,225.42Z" style="fill:#FFC727"></path><path d="M386.43,229.14a1,1,0,0,1,1.46-.14,6.52,6.52,0,0,0,3.82,1.54,4.31,4.31,0,0,0,2.5-.74,1.8,1.8,0,0,0,.86-1.44,1.14,1.14,0,0,0-.18-.64,1.89,1.89,0,0,0-.6-.6,8,8,0,0,0-2.74-.94h0a10.82,10.82,0,0,1-2.58-.78,4.3,4.3,0,0,1-1.86-1.56,3.07,3.07,0,0,1-.46-1.64,3.7,3.7,0,0,1,1.6-2.92,5.91,5.91,0,0,1,3.46-1.06,7.83,7.83,0,0,1,4.36,1.6,1,1,0,0,1,.28,1.42,1,1,0,0,1-1.42.3,5.8,5.8,0,0,0-3.22-1.28,3.82,3.82,0,0,0-2.24.68,1.59,1.59,0,0,0-.76,1.26,1,1,0,0,0,.14.56,1.93,1.93,0,0,0,.54.52,6.89,6.89,0,0,0,2.5.88h0a11.77,11.77,0,0,1,2.76.84,4.67,4.67,0,0,1,2,1.66,3.24,3.24,0,0,1,.48,1.7,3.87,3.87,0,0,1-1.72,3.1,6.25,6.25,0,0,1-3.7,1.14,8.62,8.62,0,0,1-5.12-2A1.06,1.06,0,0,1,386.43,229.14Z" style="fill:#FFC727"></path><path d="M408.47,220.84h-3.18v10.68a1.08,1.08,0,0,1-1.1,1.1,1.1,1.1,0,0,1-1.1-1.1V220.84h-3.16a1.11,1.11,0,0,1-1.1-1.12,1.08,1.08,0,0,1,1.1-1.1h8.54a1.1,1.1,0,0,1,1.1,1.1A1.13,1.13,0,0,1,408.47,220.84Z" style="fill:#FFC727"></path><path d="M316,244.5l-4.1,5.62v5.4a1.08,1.08,0,0,1-1.1,1.1,1.11,1.11,0,0,1-1.1-1.1v-5.4l-4.06-5.62a1.05,1.05,0,0,1,.22-1.52,1.07,1.07,0,0,1,1.52.24l3.42,4.68,3.42-4.68A1.1,1.1,0,0,1,316,244.5Z" style="fill:#FFC727"></path><path d="M328.19,244.36a7.35,7.35,0,0,1,0,10.12,6.55,6.55,0,0,1-4.78,2.14,6.75,6.75,0,0,1-4.9-2.14,7.46,7.46,0,0,1,0-10.12,6.67,6.67,0,0,1,4.9-2.14A6.48,6.48,0,0,1,328.19,244.36Zm-.26,5.06a5.18,5.18,0,0,0-1.36-3.5,4.32,4.32,0,0,0-6.4,0,5.09,5.09,0,0,0-1.36,3.5,5,5,0,0,0,1.36,3.48,4.28,4.28,0,0,0,6.4,0A5.09,5.09,0,0,0,327.93,249.42Z" style="fill:#FFC727"></path><path d="M339.05,256.62a5.77,5.77,0,0,1-5.78-5.78v-7.12a1.08,1.08,0,0,1,1.1-1.1,1.11,1.11,0,0,1,1.12,1.1v7.12a3.56,3.56,0,0,0,7.12,0v-7.12a1.1,1.1,0,0,1,1.12-1.1,1.08,1.08,0,0,1,1.1,1.1v7.12A5.78,5.78,0,0,1,339.05,256.62Z" style="fill:#FFC727"></path><path d="M358.29,255a1.1,1.1,0,0,1-.7,1.4,1.76,1.76,0,0,1-.44.06h0a1.45,1.45,0,0,1-.78-.22,2,2,0,0,1-.64-.7,5.38,5.38,0,0,1-.42-2.4,1.69,1.69,0,0,0-.24-.86,1.86,1.86,0,0,0-.6-.58,3.8,3.8,0,0,0-1.12-.48H351v4.34a1.11,1.11,0,0,1-1.12,1.1,1.1,1.1,0,0,1-1.1-1.1v-11.8a1.08,1.08,0,0,1,1.1-1.1h3.58a4.28,4.28,0,0,1,2.72,7.58,3.1,3.1,0,0,1,.7.74,3.79,3.79,0,0,1,.66,2.16,5,5,0,0,0,.08,1.18A1.08,1.08,0,0,1,358.29,255Zm-2.8-8a2.06,2.06,0,0,0-2.06-2.08H351V249h2.46A2.05,2.05,0,0,0,355.49,246.92Z" style="fill:#FFC727"></path><path d="M367.67,243.72a1.08,1.08,0,0,1,1.1-1.1,1.11,1.11,0,0,1,1.12,1.1v11.8a1.11,1.11,0,0,1-1.12,1.1,1.08,1.08,0,0,1-1.1-1.1Z" style="fill:#FFC727"></path><path d="M375.83,255.52a1.09,1.09,0,1,1-2.18,0V243.88a1.08,1.08,0,0,1,.44-.92,1.1,1.1,0,0,1,1.52.24l6.46,8.94V243.9a1.09,1.09,0,0,1,1.08-1.08,1.11,1.11,0,0,1,1.1,1.08v11.62a1.11,1.11,0,0,1-1.1,1.1,1.08,1.08,0,0,1-.82-.4.53.53,0,0,1-.1-.12l-6.4-8.88Z" style="fill:#FFC727"></path><path d="M401.09,243.72v11.8a1.13,1.13,0,0,1-1.12,1.1,1.1,1.1,0,0,1-1.1-1.1V247.1l-2.88,4a1.09,1.09,0,0,1-.9.46h0a1.13,1.13,0,0,1-.92-.46l-2.86-4v8.42a1.11,1.11,0,0,1-2.22,0v-11.8a1.11,1.11,0,0,1,1.1-1.1h.06a1.08,1.08,0,0,1,.88.46l4,5.52,4-5.52a1.09,1.09,0,0,1,.9-.46h0A1.14,1.14,0,0,1,401.09,243.72Z" style="fill:#FFC727"></path><path d="M411.73,256.62a5.77,5.77,0,0,1-5.78-5.78v-7.12a1.08,1.08,0,0,1,1.1-1.1,1.11,1.11,0,0,1,1.12,1.1v7.12a3.56,3.56,0,1,0,7.12,0v-7.12a1.1,1.1,0,0,1,1.12-1.1,1.08,1.08,0,0,1,1.1,1.1v7.12A5.78,5.78,0,0,1,411.73,256.62Z" style="fill:#FFC727"></path><path d="M424.11,255.52a1.09,1.09,0,1,1-2.18,0V243.88a1.08,1.08,0,0,1,.44-.92,1.1,1.1,0,0,1,1.52.24l6.46,8.94V243.9a1.09,1.09,0,0,1,1.08-1.08,1.11,1.11,0,0,1,1.1,1.08v11.62a1.11,1.11,0,0,1-1.1,1.1,1.08,1.08,0,0,1-.82-.4.53.53,0,0,1-.1-.12l-6.4-8.88Z" style="fill:#FFC727"></path><path d="M436,255.52v-11.8a1.08,1.08,0,0,1,1.1-1.1h6.54a1.11,1.11,0,0,1,1.1,1.1,1.13,1.13,0,0,1-1.1,1.12h-5.42v3.66h4.66a1.11,1.11,0,0,1,0,2.22h-4.66v3.68h5.42a1.11,1.11,0,0,1,0,2.22h-6.48s0,0,0,0l0,0A1.1,1.1,0,0,1,436,255.52Z" style="fill:#FFC727"></path><path d="M337.21,277.14a1,1,0,0,1,1.46-.14,6.52,6.52,0,0,0,3.82,1.54,4.31,4.31,0,0,0,2.5-.74,1.8,1.8,0,0,0,.86-1.44,1.14,1.14,0,0,0-.18-.64,1.89,1.89,0,0,0-.6-.6,8,8,0,0,0-2.74-.94h0a10.82,10.82,0,0,1-2.58-.78,4.3,4.3,0,0,1-1.86-1.56,3.07,3.07,0,0,1-.46-1.64,3.7,3.7,0,0,1,1.6-2.92,5.91,5.91,0,0,1,3.46-1.06,7.83,7.83,0,0,1,4.36,1.6,1,1,0,0,1,.28,1.42,1,1,0,0,1-1.42.3,5.8,5.8,0,0,0-3.22-1.28,3.82,3.82,0,0,0-2.24.68,1.59,1.59,0,0,0-.76,1.26,1,1,0,0,0,.14.56,1.93,1.93,0,0,0,.54.52,6.89,6.89,0,0,0,2.5.88h0a11.77,11.77,0,0,1,2.76.84,4.67,4.67,0,0,1,2,1.66,3.24,3.24,0,0,1,.48,1.7,3.87,3.87,0,0,1-1.72,3.1,6.25,6.25,0,0,1-3.7,1.14,8.62,8.62,0,0,1-5.12-2A1.06,1.06,0,0,1,337.21,277.14Z" style="fill:#FFC727"></path><path d="M360.13,268.5l-4.1,5.62v5.4a1.08,1.08,0,0,1-1.1,1.1,1.11,1.11,0,0,1-1.1-1.1v-5.4l-4.06-5.62A1.05,1.05,0,0,1,350,267a1.07,1.07,0,0,1,1.52.24l3.42,4.68,3.42-4.68a1.1,1.1,0,0,1,1.78,1.28Z" style="fill:#FFC727"></path><path d="M361.33,277.14a1,1,0,0,1,1.46-.14,6.52,6.52,0,0,0,3.82,1.54,4.31,4.31,0,0,0,2.5-.74,1.8,1.8,0,0,0,.86-1.44,1.14,1.14,0,0,0-.18-.64,1.89,1.89,0,0,0-.6-.6,8,8,0,0,0-2.74-.94h0a10.82,10.82,0,0,1-2.58-.78,4.3,4.3,0,0,1-1.86-1.56,3.07,3.07,0,0,1-.46-1.64,3.7,3.7,0,0,1,1.6-2.92,5.91,5.91,0,0,1,3.46-1.06,7.83,7.83,0,0,1,4.36,1.6,1,1,0,0,1,.28,1.42,1,1,0,0,1-1.42.3,5.8,5.8,0,0,0-3.22-1.28,3.82,3.82,0,0,0-2.24.68,1.59,1.59,0,0,0-.76,1.26,1,1,0,0,0,.14.56,1.93,1.93,0,0,0,.54.52,6.89,6.89,0,0,0,2.5.88h0a11.77,11.77,0,0,1,2.76.84,4.67,4.67,0,0,1,2,1.66,3.24,3.24,0,0,1,.48,1.7,3.87,3.87,0,0,1-1.72,3.1,6.25,6.25,0,0,1-3.7,1.14,8.62,8.62,0,0,1-5.12-2A1.06,1.06,0,0,1,361.33,277.14Z" style="fill:#FFC727"></path><path d="M383.37,268.84h-3.18v10.68a1.08,1.08,0,0,1-1.1,1.1,1.1,1.1,0,0,1-1.1-1.1V268.84h-3.16a1.11,1.11,0,0,1-1.1-1.12,1.08,1.08,0,0,1,1.1-1.1h8.54a1.1,1.1,0,0,1,1.1,1.1A1.13,1.13,0,0,1,383.37,268.84Z" style="fill:#FFC727"></path><path d="M387.77,279.52v-11.8a1.08,1.08,0,0,1,1.1-1.1h6.54a1.11,1.11,0,0,1,1.1,1.1,1.13,1.13,0,0,1-1.1,1.12H390v3.66h4.66a1.11,1.11,0,0,1,0,2.22H390v3.68h5.42a1.11,1.11,0,0,1,0,2.22h-6.48s0,0,0,0l0,0A1.1,1.1,0,0,1,387.77,279.52Z" style="fill:#FFC727"></path><path d="M411.67,267.72v11.8a1.13,1.13,0,0,1-1.12,1.1,1.1,1.1,0,0,1-1.1-1.1V271.1l-2.88,4a1.09,1.09,0,0,1-.9.46h0a1.13,1.13,0,0,1-.92-.46l-2.86-4v8.42a1.11,1.11,0,0,1-2.22,0v-11.8a1.11,1.11,0,0,1,1.1-1.1h.06a1.08,1.08,0,0,1,.88.46l4,5.52,4-5.52a1.09,1.09,0,0,1,.9-.46h0A1.14,1.14,0,0,1,411.67,267.72Z" style="fill:#FFC727"></path><path d="M57,68.21V56.41a1.08,1.08,0,0,1,1.1-1.1H64.6a1.11,1.11,0,0,1,1.1,1.1,1.13,1.13,0,0,1-1.1,1.12H59.18v3.66h4.66a1.11,1.11,0,0,1,0,2.22H59.18v3.68H64.6a1.11,1.11,0,0,1,0,2.22H58.12s0,0,0,0l0,0A1.1,1.1,0,0,1,57,68.21Z" style="fill:#263238"></path><path d="M78.84,57.21,75,62.37l3.8,5.2a1.09,1.09,0,0,1-.24,1.52,1.12,1.12,0,0,1-.64.22,1.15,1.15,0,0,1-.9-.46L73.7,64.23l-3.38,4.62a1.14,1.14,0,0,1-.88.46,1,1,0,0,1-.64-.22,1.09,1.09,0,0,1-.26-1.52l3.8-5.2-3.8-5.16a1.09,1.09,0,0,1,.26-1.52,1,1,0,0,1,1.52.24l3.38,4.6,3.36-4.6a1.06,1.06,0,0,1,1.54-.24A1.08,1.08,0,0,1,78.84,57.21Z" style="fill:#263238"></path><path d="M82.36,68.21V56.41a1.08,1.08,0,0,1,1.1-1.1H90a1.11,1.11,0,0,1,1.1,1.1A1.13,1.13,0,0,1,90,57.53H84.58v3.66h4.66a1.11,1.11,0,0,1,0,2.22H84.58v3.68H90a1.11,1.11,0,0,1,0,2.22H83.52s0,0,0,0l0,0A1.1,1.1,0,0,1,82.36,68.21Z" style="fill:#263238"></path><path d="M103.88,67.65a1.1,1.1,0,0,1-.7,1.4,1.76,1.76,0,0,1-.44.06h0a1.45,1.45,0,0,1-.78-.22,2,2,0,0,1-.64-.7,5.38,5.38,0,0,1-.42-2.4,1.69,1.69,0,0,0-.24-.86,1.86,1.86,0,0,0-.6-.58,3.8,3.8,0,0,0-1.12-.48H96.56v4.34a1.11,1.11,0,0,1-1.12,1.1,1.1,1.1,0,0,1-1.1-1.1V56.41a1.08,1.08,0,0,1,1.1-1.1H99a4.28,4.28,0,0,1,2.72,7.58,3.1,3.1,0,0,1,.7.74,3.79,3.79,0,0,1,.66,2.16,5,5,0,0,0,.08,1.18A1.08,1.08,0,0,1,103.88,67.65Zm-2.8-8A2.06,2.06,0,0,0,99,57.53H96.56v4.12H99A2.05,2.05,0,0,0,101.08,59.61Z" style="fill:#263238"></path><path d="M106.5,62.11a7.34,7.34,0,0,1,7.34-7.2,7.48,7.48,0,0,1,4.62,1.56,1.15,1.15,0,0,1-1.4,1.82,5,5,0,0,0-3.22-1.1,5.29,5.29,0,0,0-3.6,1.44,4.93,4.93,0,0,0-1.46,3.48,4.86,4.86,0,0,0,1.46,3.48,5.29,5.29,0,0,0,3.6,1.44,5,5,0,0,0,3.22-1.1,1.21,1.21,0,0,1,1.6.22,1.18,1.18,0,0,1-.2,1.6,7.48,7.48,0,0,1-4.62,1.56A7.32,7.32,0,0,1,106.5,62.11Z" style="fill:#263238"></path><path d="M122.68,56.41a1.08,1.08,0,0,1,1.1-1.1,1.11,1.11,0,0,1,1.12,1.1v11.8a1.11,1.11,0,0,1-1.12,1.1,1.08,1.08,0,0,1-1.1-1.1Z" style="fill:#263238"></path><path d="M128.2,65.83a1,1,0,0,1,1.46-.14,6.52,6.52,0,0,0,3.82,1.54,4.31,4.31,0,0,0,2.5-.74,1.8,1.8,0,0,0,.86-1.44,1.14,1.14,0,0,0-.18-.64,1.89,1.89,0,0,0-.6-.6,8,8,0,0,0-2.74-.94h0a10.82,10.82,0,0,1-2.58-.78,4.3,4.3,0,0,1-1.86-1.56,3.07,3.07,0,0,1-.46-1.64A3.7,3.7,0,0,1,130,56a5.91,5.91,0,0,1,3.46-1.06,7.83,7.83,0,0,1,4.36,1.6,1,1,0,0,1,.28,1.42,1,1,0,0,1-1.42.3A5.8,5.8,0,0,0,133.44,57a3.82,3.82,0,0,0-2.24.68,1.59,1.59,0,0,0-.76,1.26,1,1,0,0,0,.14.56,1.93,1.93,0,0,0,.54.52,6.89,6.89,0,0,0,2.5.88h0a11.77,11.77,0,0,1,2.76.84,4.67,4.67,0,0,1,2,1.66,3.24,3.24,0,0,1,.48,1.7,3.87,3.87,0,0,1-1.72,3.1,6.25,6.25,0,0,1-3.7,1.14,8.62,8.62,0,0,1-5.12-2A1.06,1.06,0,0,1,128.2,65.83Z" style="fill:#263238"></path><path d="M142,68.21V56.41a1.08,1.08,0,0,1,1.1-1.1h6.54a1.11,1.11,0,0,1,1.1,1.1,1.13,1.13,0,0,1-1.1,1.12H144.2v3.66h4.66a1.11,1.11,0,0,1,0,2.22H144.2v3.68h5.42a1.11,1.11,0,0,1,0,2.22h-6.48s0,0,0,0l0,0A1.1,1.1,0,0,1,142,68.21Z" style="fill:#263238"></path><path d="M79,92.21V80.41a1.08,1.08,0,0,1,1.1-1.1h2.36a7,7,0,0,1,0,14H80.08A1.1,1.1,0,0,1,79,92.21Zm2.22-1.12h1.24a4.78,4.78,0,0,0,0-9.56H81.2Z" style="fill:#263238"></path><path d="M99.2,90H94.34l-1,2.6a1.12,1.12,0,0,1-1,.7,1.16,1.16,0,0,1-.38-.06,1.13,1.13,0,0,1-.66-1.44L95.7,80a1.12,1.12,0,0,1,1.06-.7,1.1,1.1,0,0,1,1.06.7l4.42,11.78a1.13,1.13,0,0,1-.66,1.44,1.12,1.12,0,0,1-1.4-.64Zm-.82-2.2-1.62-4.3-1.62,4.3Z" style="fill:#263238"></path><path d="M105.12,80.41a1.08,1.08,0,0,1,1.1-1.1,1.11,1.11,0,0,1,1.12,1.1v11.8a1.11,1.11,0,0,1-1.12,1.1,1.08,1.08,0,0,1-1.1-1.1Z" style="fill:#263238"></path><path d="M111.08,92.21V80.41a1.1,1.1,0,0,1,1.1-1.1,1.11,1.11,0,0,1,1.12,1.1V91.09h5.42a1.11,1.11,0,0,1,0,2.22h-6.54A1.1,1.1,0,0,1,111.08,92.21Z" style="fill:#263238"></path><path d="M129.48,81.19l-4.1,5.62v5.4a1.08,1.08,0,0,1-1.1,1.1,1.11,1.11,0,0,1-1.1-1.1v-5.4l-4.06-5.62a1.05,1.05,0,0,1,.22-1.52,1.07,1.07,0,0,1,1.52.24l3.42,4.68,3.42-4.68a1.1,1.1,0,0,1,1.78,1.28Z" style="fill:#263238"></path><path d="M78.66,396.92v-11.8a1.08,1.08,0,0,1,1.1-1.1H86.3a1.11,1.11,0,0,1,1.1,1.1,1.13,1.13,0,0,1-1.1,1.12H80.88v3.66h4.66a1.11,1.11,0,0,1,0,2.22H80.88v3.68H86.3a1.11,1.11,0,0,1,0,2.22H79.82s0,0,0,0l0,0A1.1,1.1,0,0,1,78.66,396.92Z" style="fill:#263238"></path><path d="M97.66,394.72H92.8l-1,2.6a1.12,1.12,0,0,1-1,.7,1.16,1.16,0,0,1-.38-.06,1.13,1.13,0,0,1-.66-1.44l4.42-11.78a1.12,1.12,0,0,1,1.06-.7,1.1,1.1,0,0,1,1.06.7l4.43,11.78A1.13,1.13,0,0,1,100,398a1.12,1.12,0,0,1-1.4-.64Zm-.82-2.2-1.62-4.3-1.62,4.3Z" style="fill:#263238"></path><path d="M110,386.24h-3.18v10.68a1.08,1.08,0,0,1-1.1,1.1,1.1,1.1,0,0,1-1.1-1.1V386.24h-3.16a1.11,1.11,0,0,1-1.1-1.12,1.08,1.08,0,0,1,1.1-1.1H110a1.1,1.1,0,0,1,1.1,1.1A1.13,1.13,0,0,1,110,386.24Z" style="fill:#263238"></path><path d="M79.91,409.12v11.8a1.13,1.13,0,0,1-1.12,1.1,1.1,1.1,0,0,1-1.11-1.1V412.5l-2.88,4a1.09,1.09,0,0,1-.9.46h0a1.13,1.13,0,0,1-.92-.46l-2.86-4v8.42a1.11,1.11,0,0,1-2.22,0v-11.8A1.11,1.11,0,0,1,69,408H69a1.08,1.08,0,0,1,.88.46l4,5.52,4-5.52a1.11,1.11,0,0,1,.91-.46h0A1.14,1.14,0,0,1,79.91,409.12Z" style="fill:#263238"></path><path d="M94.89,409.76a7.35,7.35,0,0,1,0,10.12A6.59,6.59,0,0,1,90.1,422a6.75,6.75,0,0,1-4.9-2.14,7.46,7.46,0,0,1,0-10.12,6.67,6.67,0,0,1,4.9-2.14A6.52,6.52,0,0,1,94.89,409.76Zm-.26,5.06a5.14,5.14,0,0,0-1.37-3.5,4.32,4.32,0,0,0-6.4,0,5.09,5.09,0,0,0-1.36,3.5,5,5,0,0,0,1.36,3.48,4.28,4.28,0,0,0,6.4,0A5.05,5.05,0,0,0,94.63,414.82Z" style="fill:#263238"></path><path d="M110.1,420.36a1.1,1.1,0,0,1-.7,1.4,1.76,1.76,0,0,1-.44.06h0a1.45,1.45,0,0,1-.78-.22,2,2,0,0,1-.64-.7,5.38,5.38,0,0,1-.42-2.4,1.69,1.69,0,0,0-.24-.86,1.86,1.86,0,0,0-.6-.58,3.8,3.8,0,0,0-1.12-.48h-2.36v4.34a1.11,1.11,0,0,1-1.12,1.1,1.1,1.1,0,0,1-1.1-1.1v-11.8a1.08,1.08,0,0,1,1.1-1.1h3.58A4.28,4.28,0,0,1,108,415.6a3.1,3.1,0,0,1,.7.74,3.79,3.79,0,0,1,.66,2.16,5,5,0,0,0,.08,1.18A1.08,1.08,0,0,1,110.1,420.36Zm-2.8-8a2.06,2.06,0,0,0-2.06-2.08h-2.46v4.12h2.46A2.05,2.05,0,0,0,107.3,412.32Z" style="fill:#263238"></path><path d="M113.34,420.92v-11.8a1.08,1.08,0,0,1,1.1-1.1H121a1.11,1.11,0,0,1,1.1,1.1,1.13,1.13,0,0,1-1.1,1.12h-5.42v3.66h4.66a1.11,1.11,0,0,1,0,2.22h-4.66v3.68H121a1.11,1.11,0,0,1,0,2.22H114.5s0,0,0,0l0,0A1.1,1.1,0,0,1,113.34,420.92Z" style="fill:#263238"></path><path d="M53.26,444.92v-11.8a1.08,1.08,0,0,1,1.1-1.1,1.1,1.1,0,0,1,1.12,1.1v4.8h5.18v-4.8a1.08,1.08,0,0,1,1.1-1.1,1.1,1.1,0,0,1,1.13,1.1v11.8a1.1,1.1,0,0,1-1.13,1.1,1.08,1.08,0,0,1-1.1-1.1v-4.8H55.48v4.8a1.1,1.1,0,0,1-1.12,1.1A1.08,1.08,0,0,1,53.26,444.92Z" style="fill:#263238"></path><path d="M67.44,444.92v-11.8a1.08,1.08,0,0,1,1.1-1.1h6.55a1.12,1.12,0,0,1,1.1,1.1,1.13,1.13,0,0,1-1.1,1.12H69.66v3.66h4.66a1.11,1.11,0,0,1,0,2.22H69.66v3.68h5.43a1.11,1.11,0,0,1,0,2.22H68.6s0,0,0,0l0,0A1.1,1.1,0,0,1,67.44,444.92Z" style="fill:#263238"></path><path d="M86.44,442.72H81.58l-1,2.6a1.12,1.12,0,0,1-1,.7,1.16,1.16,0,0,1-.38-.06,1.13,1.13,0,0,1-.66-1.44l4.42-11.78A1.12,1.12,0,0,1,84,432a1.1,1.1,0,0,1,1.06.7l4.42,11.78a1.13,1.13,0,0,1-.66,1.44,1.12,1.12,0,0,1-1.4-.64Zm-.82-2.2L84,436.22l-1.62,4.3Z" style="fill:#263238"></path><path d="M92.22,444.92v-11.8a1.1,1.1,0,0,1,1.1-1.1,1.11,1.11,0,0,1,1.12,1.1V443.8h5.42a1.11,1.11,0,0,1,0,2.22H93.32A1.1,1.1,0,0,1,92.22,444.92Z" style="fill:#263238"></path><path d="M110,434.24h-3.18v10.68a1.08,1.08,0,0,1-1.1,1.1,1.1,1.1,0,0,1-1.1-1.1V434.24H101.5a1.11,1.11,0,0,1-1.1-1.12,1.08,1.08,0,0,1,1.1-1.1H110a1.11,1.11,0,0,1,1.11,1.1A1.14,1.14,0,0,1,110,434.24Z" style="fill:#263238"></path><path d="M114.44,444.92v-11.8a1.08,1.08,0,0,1,1.1-1.1,1.1,1.1,0,0,1,1.12,1.1v4.8h5.18v-4.8a1.08,1.08,0,0,1,1.1-1.1,1.1,1.1,0,0,1,1.12,1.1v11.8a1.1,1.1,0,0,1-1.12,1.1,1.08,1.08,0,0,1-1.1-1.1v-4.8h-5.18v4.8a1.1,1.1,0,0,1-1.12,1.1A1.08,1.08,0,0,1,114.44,444.92Z" style="fill:#263238"></path><path d="M137.46,433.9l-4.1,5.62v5.4a1.08,1.08,0,0,1-1.1,1.1,1.11,1.11,0,0,1-1.1-1.1v-5.4l-4.06-5.62a1.05,1.05,0,0,1,.22-1.52,1.07,1.07,0,0,1,1.52.24l3.42,4.68,3.42-4.68a1.1,1.1,0,0,1,1.78,1.28Z" style="fill:#263238"></path><path d="M420.15,396.92v-11.8a1.08,1.08,0,0,1,1.1-1.1h2.36a7,7,0,0,1,0,14h-2.36A1.1,1.1,0,0,1,420.15,396.92Zm2.22-1.12h1.24a4.78,4.78,0,0,0,0-9.56h-1.24Z" style="fill:#263238"></path><path d="M443.39,396.36a1.1,1.1,0,0,1-.7,1.4,1.76,1.76,0,0,1-.44.06h0a1.45,1.45,0,0,1-.78-.22,2,2,0,0,1-.64-.7,5.38,5.38,0,0,1-.42-2.4,1.69,1.69,0,0,0-.24-.86,1.86,1.86,0,0,0-.6-.58,3.8,3.8,0,0,0-1.12-.48h-2.36v4.34A1.11,1.11,0,0,1,435,398a1.1,1.1,0,0,1-1.1-1.1v-11.8A1.08,1.08,0,0,1,435,384h3.58a4.28,4.28,0,0,1,2.72,7.58,3.1,3.1,0,0,1,.7.74,3.79,3.79,0,0,1,.66,2.16,5,5,0,0,0,.08,1.18A1.08,1.08,0,0,1,443.39,396.36Zm-2.8-8a2.06,2.06,0,0,0-2.06-2.08h-2.46v4.12h2.46A2.05,2.05,0,0,0,440.59,388.32Z" style="fill:#263238"></path><path d="M446.77,385.12a1.08,1.08,0,0,1,1.1-1.1,1.11,1.11,0,0,1,1.12,1.1v11.8a1.11,1.11,0,0,1-1.12,1.1,1.08,1.08,0,0,1-1.1-1.1Z" style="fill:#263238"></path><path d="M454.93,396.92a1.09,1.09,0,1,1-2.18,0V385.28a1.08,1.08,0,0,1,.44-.92,1.1,1.1,0,0,1,1.52.24l6.46,8.94V385.3a1.09,1.09,0,0,1,1.08-1.08,1.11,1.11,0,0,1,1.1,1.08v11.62a1.11,1.11,0,0,1-1.1,1.1,1.08,1.08,0,0,1-.82-.4.53.53,0,0,1-.1-.12l-6.4-8.88Z" style="fill:#263238"></path><path d="M468.15,396.92v-11.7a1.1,1.1,0,0,1,2.2,0V391l6.48-6.5a1.09,1.09,0,0,1,1.56,0,1.12,1.12,0,0,1,0,1.56L474,390.4l4.44,5.82a1.07,1.07,0,0,1-.16,1.54,1,1,0,0,1-.7.26,1.08,1.08,0,0,1-.82-.4L472.43,392l-2.08,2.12v2.84a1.1,1.1,0,1,1-2.2,0Z" style="fill:#263238"></path><path d="M434.67,409.12v11.8a1.13,1.13,0,0,1-1.12,1.1,1.1,1.1,0,0,1-1.1-1.1V412.5l-2.88,4a1.09,1.09,0,0,1-.9.46h0a1.13,1.13,0,0,1-.92-.46l-2.86-4v8.42a1.11,1.11,0,0,1-2.22,0v-11.8a1.11,1.11,0,0,1,1.1-1.1h.06a1.08,1.08,0,0,1,.88.46l4,5.52,4-5.52a1.09,1.09,0,0,1,.9-.46h0A1.14,1.14,0,0,1,434.67,409.12Z" style="fill:#263238"></path><path d="M449.65,409.76a7.35,7.35,0,0,1,0,10.12,6.55,6.55,0,0,1-4.78,2.14,6.75,6.75,0,0,1-4.9-2.14,7.46,7.46,0,0,1,0-10.12,6.67,6.67,0,0,1,4.9-2.14A6.48,6.48,0,0,1,449.65,409.76Zm-.26,5.06a5.18,5.18,0,0,0-1.36-3.5,4.32,4.32,0,0,0-6.4,0,5.09,5.09,0,0,0-1.36,3.5,5,5,0,0,0,1.36,3.48,4.28,4.28,0,0,0,6.4,0A5.09,5.09,0,0,0,449.39,414.82Z" style="fill:#263238"></path><path d="M464.87,420.36a1.1,1.1,0,0,1-.7,1.4,1.76,1.76,0,0,1-.44.06h0a1.45,1.45,0,0,1-.78-.22,2,2,0,0,1-.64-.7,5.38,5.38,0,0,1-.42-2.4,1.69,1.69,0,0,0-.24-.86,1.86,1.86,0,0,0-.6-.58,3.8,3.8,0,0,0-1.12-.48h-2.36v4.34a1.11,1.11,0,0,1-1.12,1.1,1.1,1.1,0,0,1-1.1-1.1v-11.8a1.08,1.08,0,0,1,1.1-1.1H460a4.28,4.28,0,0,1,2.72,7.58,3.1,3.1,0,0,1,.7.74,3.79,3.79,0,0,1,.66,2.16,5,5,0,0,0,.08,1.18A1.08,1.08,0,0,1,464.87,420.36Zm-2.8-8a2.06,2.06,0,0,0-2.06-2.08h-2.46v4.12H460A2.05,2.05,0,0,0,462.07,412.32Z" style="fill:#263238"></path><path d="M468.11,420.92v-11.8a1.08,1.08,0,0,1,1.1-1.1h6.54a1.11,1.11,0,0,1,1.1,1.1,1.13,1.13,0,0,1-1.1,1.12h-5.42v3.66H475a1.11,1.11,0,0,1,0,2.22h-4.66v3.68h5.42a1.11,1.11,0,0,1,0,2.22h-6.48s0,0,0,0l0,0A1.1,1.1,0,0,1,468.11,420.92Z" style="fill:#263238"></path><path d="M435.6,433.68l-4.9,11.66a.52.52,0,0,1-.1.18l0,0a.53.53,0,0,1-.1.12s0,0,0,.06a.61.61,0,0,0-.14.1h0c-.06,0-.1.1-.18.12h0a0,0,0,0,0,0,0l-.16,0h0a.62.62,0,0,1-.2,0,.55.55,0,0,1-.18,0h-.06a.51.51,0,0,0-.14,0l0,0a.41.41,0,0,1-.18-.12h0l-.14-.1,0-.06s-.06-.08-.08-.12,0,0,0,0a.49.49,0,0,1-.08-.18l-2.62-6.2-2.62,6.2a1.59,1.59,0,0,1-.08.18,0,0,0,0,0,0,0l-.12.12s0,0,0,.06a.53.53,0,0,0-.12.1h0c-.06,0-.12.1-.16.12h0a0,0,0,0,0,0,0,.31.31,0,0,0-.16,0h-.06a.55.55,0,0,1-.18,0,.68.68,0,0,1-.2,0h-.06a.51.51,0,0,0-.14,0l0,0a.57.57,0,0,1-.18-.12h0c-.06,0-.08-.08-.14-.1l0-.06-.1-.12v0a1.45,1.45,0,0,1-.1-.18l-4.92-11.66a1.09,1.09,0,0,1,2-.84l3.92,9.26L425,436a1.1,1.1,0,0,1,1-.68,1.14,1.14,0,0,1,1,.68l2.58,6.14,3.9-9.26a1.11,1.11,0,0,1,1.46-.58A1.08,1.08,0,0,1,435.6,433.68Z" style="fill:#263238"></path><path d="M443.94,442.72h-4.86l-1,2.6a1.12,1.12,0,0,1-1,.7,1.16,1.16,0,0,1-.38-.06,1.13,1.13,0,0,1-.66-1.44l4.42-11.78a1.12,1.12,0,0,1,1.06-.7,1.1,1.1,0,0,1,1.06.7L447,444.52a1.13,1.13,0,0,1-.66,1.44,1.12,1.12,0,0,1-1.4-.64Zm-.82-2.2-1.62-4.3-1.62,4.3Z" style="fill:#263238"></path><path d="M456.28,434.24H453.1v10.68A1.08,1.08,0,0,1,452,446a1.1,1.1,0,0,1-1.1-1.1V434.24h-3.16a1.11,1.11,0,0,1-1.1-1.12,1.08,1.08,0,0,1,1.1-1.1h8.54a1.1,1.1,0,0,1,1.1,1.1A1.13,1.13,0,0,1,456.28,434.24Z" style="fill:#263238"></path><path d="M460.68,444.92v-11.8a1.08,1.08,0,0,1,1.1-1.1h6.54a1.11,1.11,0,0,1,1.1,1.1,1.13,1.13,0,0,1-1.1,1.12H462.9v3.66h4.66a1.11,1.11,0,0,1,0,2.22H462.9v3.68h5.42a1.11,1.11,0,0,1,0,2.22h-6.48s0,0,0,0l0,0A1.1,1.1,0,0,1,460.68,444.92Z" style="fill:#263238"></path><path d="M482.2,444.36a1.1,1.1,0,0,1-.7,1.4,1.76,1.76,0,0,1-.44.06h0a1.45,1.45,0,0,1-.78-.22,2,2,0,0,1-.64-.7,5.38,5.38,0,0,1-.42-2.4,1.69,1.69,0,0,0-.24-.86,1.86,1.86,0,0,0-.6-.58,3.8,3.8,0,0,0-1.12-.48h-2.36v4.34a1.11,1.11,0,0,1-1.12,1.1,1.1,1.1,0,0,1-1.1-1.1v-11.8a1.08,1.08,0,0,1,1.1-1.1h3.58a4.28,4.28,0,0,1,2.72,7.58,3.1,3.1,0,0,1,.7.74,3.79,3.79,0,0,1,.66,2.16,5,5,0,0,0,.08,1.18A1.08,1.08,0,0,1,482.2,444.36Zm-2.8-8a2.06,2.06,0,0,0-2.06-2.08h-2.46v4.12h2.46A2.05,2.05,0,0,0,479.4,436.32Z" style="fill:#263238"></path><path d="M407.22,62.13a7.29,7.29,0,0,1,7.38-7.22,7.39,7.39,0,0,1,4.56,1.56,1.15,1.15,0,0,1,.22,1.62,1.16,1.16,0,0,1-1.62.18,5.2,5.2,0,0,0-3.16-1.08,5,5,0,0,0-3.6,1.46,4.74,4.74,0,0,0,0,6.92A5,5,0,0,0,414.6,67a5.52,5.52,0,0,0,2.74-.76V63.53h-2.86a1.15,1.15,0,0,1-1.14-1.14,1.12,1.12,0,0,1,1.14-1.12h4a1.13,1.13,0,0,1,1.16,1.12v4.42a1.72,1.72,0,0,1-.06.34s0,.06,0,.1v0a1,1,0,0,1-.38.48,7.38,7.38,0,0,1-4.54,1.56A7.27,7.27,0,0,1,407.22,62.13Z" style="fill:#263238"></path><path d="M424.12,68.21V56.41a1.08,1.08,0,0,1,1.1-1.1h6.54a1.11,1.11,0,0,1,1.1,1.1,1.13,1.13,0,0,1-1.1,1.12h-5.42v3.66H431a1.11,1.11,0,0,1,0,2.22h-4.66v3.68h5.42a1.11,1.11,0,0,1,0,2.22h-6.48s0,0,0,0l0,0A1.1,1.1,0,0,1,424.12,68.21Z" style="fill:#263238"></path><path d="M444.54,57.53h-3.18V68.21a1.08,1.08,0,0,1-1.1,1.1,1.1,1.1,0,0,1-1.1-1.1V57.53H436a1.11,1.11,0,0,1-1.1-1.12,1.08,1.08,0,0,1,1.1-1.1h8.54a1.1,1.1,0,0,1,1.1,1.1A1.13,1.13,0,0,1,444.54,57.53Z" style="fill:#263238"></path><path d="M387.28,92.21V80.41a1.08,1.08,0,0,1,1.1-1.1h6.54a1.11,1.11,0,0,1,1.1,1.1,1.13,1.13,0,0,1-1.1,1.12H389.5v3.66h4.66a1.11,1.11,0,0,1,0,2.22H389.5v3.68h5.42a1.11,1.11,0,0,1,0,2.22h-6.48s0,0,0,0l0,0A1.1,1.1,0,0,1,387.28,92.21Z" style="fill:#263238"></path><path d="M401.34,92.21a1.09,1.09,0,1,1-2.18,0V80.57a1.08,1.08,0,0,1,.44-.92,1.1,1.1,0,0,1,1.52.24l6.46,8.94V80.59a1.09,1.09,0,0,1,1.08-1.08,1.11,1.11,0,0,1,1.1,1.08V92.21a1.11,1.11,0,0,1-1.1,1.1,1.08,1.08,0,0,1-.82-.4.53.53,0,0,1-.1-.12l-6.4-8.88Z" style="fill:#263238"></path><path d="M424.6,81.05a7.35,7.35,0,0,1,0,10.12,6.55,6.55,0,0,1-4.78,2.14,6.75,6.75,0,0,1-4.9-2.14,7.46,7.46,0,0,1,0-10.12,6.67,6.67,0,0,1,4.9-2.14A6.48,6.48,0,0,1,424.6,81.05Zm-.26,5.06a5.18,5.18,0,0,0-1.36-3.5,4.32,4.32,0,0,0-6.4,0,5.09,5.09,0,0,0-1.36,3.5,5,5,0,0,0,1.36,3.48,4.28,4.28,0,0,0,6.4,0A5.09,5.09,0,0,0,424.34,86.11Z" style="fill:#263238"></path><path d="M435.46,93.31a5.77,5.77,0,0,1-5.78-5.78V80.41a1.08,1.08,0,0,1,1.1-1.1,1.11,1.11,0,0,1,1.12,1.1v7.12a3.56,3.56,0,0,0,7.12,0V80.41a1.1,1.1,0,0,1,1.12-1.1,1.08,1.08,0,0,1,1.1,1.1v7.12A5.78,5.78,0,0,1,435.46,93.31Z" style="fill:#263238"></path><path d="M445.32,86.13a7.29,7.29,0,0,1,7.38-7.22,7.39,7.39,0,0,1,4.56,1.56,1.15,1.15,0,0,1,.22,1.62,1.16,1.16,0,0,1-1.62.18,5.2,5.2,0,0,0-3.16-1.08,5,5,0,0,0-3.6,1.46,4.74,4.74,0,0,0,0,6.92A5,5,0,0,0,452.7,91a5.52,5.52,0,0,0,2.74-.76V87.53h-2.86a1.15,1.15,0,0,1-1.14-1.14,1.12,1.12,0,0,1,1.14-1.12h4a1.13,1.13,0,0,1,1.16,1.12v4.42a1.72,1.72,0,0,1-.06.34s0,.06,0,.1v0a1,1,0,0,1-.38.48,7.38,7.38,0,0,1-4.54,1.56A7.27,7.27,0,0,1,445.32,86.13Z" style="fill:#263238"></path><path d="M461.32,92.21V80.41a1.08,1.08,0,0,1,1.1-1.1,1.1,1.1,0,0,1,1.12,1.1v4.8h5.18v-4.8a1.08,1.08,0,0,1,1.1-1.1,1.1,1.1,0,0,1,1.12,1.1v11.8a1.1,1.1,0,0,1-1.12,1.1,1.08,1.08,0,0,1-1.1-1.1v-4.8h-5.18v4.8a1.1,1.1,0,0,1-1.12,1.1A1.08,1.08,0,0,1,461.32,92.21Z" style="fill:#263238"></path><path d="M401,113.83a1,1,0,0,1,1.46-.14,6.52,6.52,0,0,0,3.82,1.54,4.31,4.31,0,0,0,2.5-.74,1.8,1.8,0,0,0,.86-1.44,1.14,1.14,0,0,0-.18-.64,1.89,1.89,0,0,0-.6-.6,8,8,0,0,0-2.74-.94h0a10.82,10.82,0,0,1-2.58-.78,4.3,4.3,0,0,1-1.86-1.56,3.07,3.07,0,0,1-.46-1.64,3.7,3.7,0,0,1,1.6-2.92,5.91,5.91,0,0,1,3.46-1.06,7.83,7.83,0,0,1,4.36,1.6,1,1,0,0,1,.28,1.42,1,1,0,0,1-1.42.3A5.8,5.8,0,0,0,406.2,105a3.82,3.82,0,0,0-2.24.68,1.59,1.59,0,0,0-.76,1.26,1,1,0,0,0,.14.56,1.93,1.93,0,0,0,.54.52,6.89,6.89,0,0,0,2.5.88h0a11.77,11.77,0,0,1,2.76.84,4.67,4.67,0,0,1,2,1.66,3.24,3.24,0,0,1,.48,1.7,3.87,3.87,0,0,1-1.72,3.1,6.25,6.25,0,0,1-3.7,1.14,8.62,8.62,0,0,1-5.12-2A1.06,1.06,0,0,1,401,113.83Z" style="fill:#263238"></path><path d="M414.74,116.21v-11.8a1.1,1.1,0,0,1,1.1-1.1,1.11,1.11,0,0,1,1.12,1.1v10.68h5.42a1.11,1.11,0,0,1,0,2.22h-6.54A1.1,1.1,0,0,1,414.74,116.21Z" style="fill:#263238"></path><path d="M426,116.21v-11.8a1.08,1.08,0,0,1,1.1-1.1h6.54a1.11,1.11,0,0,1,1.1,1.1,1.13,1.13,0,0,1-1.1,1.12h-5.42v3.66h4.66a1.11,1.11,0,0,1,0,2.22h-4.66v3.68h5.42a1.11,1.11,0,0,1,0,2.22h-6.48s0,0,0,0l0,0A1.1,1.1,0,0,1,426,116.21Z" style="fill:#263238"></path><path d="M437.86,116.21v-11.8a1.08,1.08,0,0,1,1.1-1.1h6.54a1.11,1.11,0,0,1,1.1,1.1,1.13,1.13,0,0,1-1.1,1.12h-5.42v3.66h4.66a1.11,1.11,0,0,1,0,2.22h-4.66v3.68h5.42a1.11,1.11,0,0,1,0,2.22H439s0,0,0,0l0,0A1.1,1.1,0,0,1,437.86,116.21Z" style="fill:#263238"></path><path d="M454.4,111.87h-2.46v4.34a1.11,1.11,0,0,1-2.22,0v-11.8a1.1,1.1,0,0,1,1.1-1.1h3.58a4.28,4.28,0,1,1,0,8.56Zm-2.46-2.22h2.46a2.06,2.06,0,1,0,0-4.12h-2.46Z" style="fill:#263238"></path></g></svg>