<svg width="24" height="23" viewBox="0 0 24 23" fill="none" xmlns="http://www.w3.org/2000/svg">
<path d="M10 16.0697C9.58579 16.0697 9.25001 16.4054 9.25001 16.8197C9.25001 17.2339 9.58579 17.5697 10 17.5697H14C14.4142 17.5697 14.75 17.2339 14.75 16.8197C14.75 16.4054 14.4142 16.0697 14 16.0697H10Z" fill="#FAFAFA"/>
<path fill-rule="evenodd" clip-rule="evenodd" d="M12.2108 0.253865C12.0703 0.248712 11.9297 0.248712 11.7892 0.253865C10.8618 0.287886 10.0268 0.603234 9.11115 1.12818C8.21888 1.63974 7.19165 2.38608 5.88826 3.33305L5.81741 3.38453C4.51402 4.33149 3.48676 5.07783 2.72451 5.76835C1.94232 6.47693 1.38435 7.17368 1.06542 8.04515C1.01711 8.17717 0.973653 8.31091 0.935143 8.44611C0.680923 9.33861 0.722785 10.2303 0.939096 11.2633C1.14989 12.27 1.54227 13.4776 2.04013 15.0098L2.0672 15.0931C2.56503 16.6253 2.95741 17.8329 3.37858 18.7712C3.81077 19.7341 4.301 20.4801 5.03127 21.0527C5.14189 21.1394 5.25566 21.2221 5.37234 21.3005C6.1426 21.8181 7.00355 22.0538 8.05284 22.1673C9.07539 22.2779 10.3451 22.2779 11.9562 22.2779H12.0438C13.6549 22.2779 14.9246 22.2779 15.9472 22.1673C16.9965 22.0538 17.8574 21.8181 18.6277 21.3005C18.7444 21.2221 18.8581 21.1394 18.9687 21.0527C19.699 20.4801 20.1892 19.7341 20.6214 18.7712C21.0426 17.8329 21.435 16.6253 21.9328 15.093L21.9599 15.0097C22.4577 13.4776 22.8501 12.2699 23.0609 11.2633C23.2772 10.2303 23.3191 9.33861 23.0649 8.44611C23.0264 8.31091 22.9829 8.17717 22.9346 8.04515C22.6157 7.17368 22.0577 6.47693 21.2755 5.76835C20.5132 5.07782 19.486 4.33149 18.1826 3.38452L18.1117 3.33303C16.8084 2.38607 15.7811 1.63973 14.8889 1.12818C13.9733 0.603234 13.1382 0.287886 12.2108 0.253865ZM11.8442 1.75286C11.948 1.74905 12.052 1.74905 12.1558 1.75286C12.7512 1.7747 13.3443 1.97167 14.1428 2.42948C14.9566 2.89603 15.9189 3.59396 17.2655 4.57232C18.6121 5.55068 19.5733 6.25026 20.2684 6.88002C20.9506 7.49798 21.3212 8.00112 21.526 8.56067C21.5617 8.65824 21.5938 8.75709 21.6222 8.85703C21.7855 9.43007 21.7814 10.055 21.5928 10.9558C21.4005 11.874 21.0341 13.0049 20.5198 14.5879C20.0054 16.1709 19.6371 17.3012 19.253 18.157C18.8761 18.9967 18.5121 19.5046 18.0432 19.8723C17.9614 19.9364 17.8773 19.9975 17.7911 20.0555C17.2965 20.3878 16.701 20.577 15.7859 20.676C14.8533 20.7768 13.6645 20.7779 12 20.7779C10.3355 20.7779 9.14673 20.7768 8.21414 20.676C7.29905 20.577 6.7035 20.3878 6.20894 20.0555C6.12269 19.9975 6.0386 19.9364 5.95684 19.8723C5.48796 19.5046 5.12396 18.9967 4.74705 18.157C4.36293 17.3012 3.9946 16.1709 3.48025 14.5879C2.9659 13.0049 2.59951 11.874 2.40725 10.9558C2.21861 10.055 2.21454 9.43007 2.37776 8.85703C2.40623 8.7571 2.43834 8.65824 2.47405 8.56067C2.67883 8.00112 3.04942 7.49798 3.73157 6.88002C4.42676 6.25026 5.38791 5.55068 6.73451 4.57232C8.0811 3.59396 9.04345 2.89603 9.85722 2.42948C10.6557 1.97167 11.2488 1.7747 11.8442 1.75286Z" fill="#FAFAFA"/>
</svg>
