<svg width="23" height="23" viewBox="0 0 23 23" fill="none" xmlns="http://www.w3.org/2000/svg">
<path d="M16.971 1.75214C17.9784 1.74765 18.6705 1.7457 19.1977 1.80328C19.3691 1.82199 19.5123 1.8461 19.6339 1.87525L9.00543 12.5037C8.71253 12.7966 8.71253 13.2715 9.00543 13.5644C9.29832 13.8573 9.77319 13.8573 10.0661 13.5644L20.6946 2.93591C20.7237 3.05751 20.7478 3.20071 20.7665 3.37206C20.8241 3.89929 20.8221 4.59144 20.8177 5.59881L20.8066 8.08095C20.8047 8.49516 21.139 8.83244 21.5532 8.83429C21.9674 8.83613 22.3047 8.50185 22.3066 8.08764L22.3178 5.5608C22.3221 4.60908 22.3256 3.83125 22.2577 3.20921C22.187 2.56239 22.0314 1.98972 21.6501 1.49694C21.5675 1.39026 21.4785 1.28898 21.3834 1.19364C21.286 1.09587 21.1822 1.00437 21.0729 0.91971C20.5801 0.538348 20.0074 0.382778 19.3606 0.312141C18.7386 0.244212 17.9607 0.247697 17.009 0.25196L14.4822 0.263234C14.0679 0.265082 13.7337 0.602363 13.7355 1.01657C13.7374 1.43078 14.0746 1.76507 14.4888 1.76322L16.971 1.75214Z" fill="#FAFAFA"/>
<path d="M12.009 3.44206C11.4034 3.4348 10.7363 3.4348 10.0032 3.4348H9.95475C8.11821 3.43479 6.67861 3.43478 5.53648 3.55852C4.37094 3.6848 3.42656 3.94712 2.62024 4.53295C2.13209 4.88761 1.70281 5.31689 1.34815 5.80503C0.762324 6.61135 0.500006 7.55573 0.373728 8.72127C0.249985 9.86341 0.249992 11.303 0.25 13.1395V13.23C0.249992 15.0666 0.249985 16.5062 0.373728 17.6483C0.500006 18.8139 0.762324 19.7582 1.34815 20.5646C1.70281 21.0527 2.13209 21.482 2.62024 21.8366C3.42656 22.4225 4.37094 22.6848 5.53648 22.8111C6.67859 22.9348 8.11817 22.9348 9.95465 22.9348H10.0453C11.8818 22.9348 13.3214 22.9348 14.4635 22.8111C15.6291 22.6848 16.5734 22.4225 17.3798 21.8366C17.8679 21.482 18.2972 21.0527 18.6518 20.5646C19.2377 19.7582 19.5 18.8139 19.6263 17.6483C19.75 16.5062 19.75 15.0666 19.75 13.2301V13.1813C19.75 12.4484 19.75 11.7814 19.7427 11.1758C19.7378 10.7616 19.398 10.4299 18.9838 10.4348C18.5696 10.4398 18.2379 10.7796 18.2428 11.1938C18.25 11.7895 18.25 12.4481 18.25 13.1848C18.25 15.0764 18.249 16.4348 18.135 17.4867C18.0225 18.5247 17.8074 19.1749 17.4383 19.6829C17.1762 20.0437 16.8589 20.361 16.4981 20.6231C15.9901 20.9922 15.3399 21.2073 14.302 21.3198C13.25 21.4338 11.8916 21.4348 10 21.4348C8.10843 21.4348 6.74999 21.4338 5.69804 21.3198C4.66013 21.2073 4.00992 20.9922 3.50191 20.6231C3.14111 20.361 2.82382 20.0437 2.56168 19.6829C2.19259 19.1749 1.97745 18.5247 1.865 17.4867C1.75103 16.4348 1.75 15.0764 1.75 13.1848C1.75 11.2932 1.75103 9.93479 1.865 8.88284C1.97745 7.84493 2.19259 7.19471 2.56168 6.68671C2.82382 6.32591 3.14111 6.00861 3.50191 5.74647C4.00992 5.37739 4.66013 5.16225 5.69804 5.0498C6.74999 4.93582 8.10843 4.9348 10 4.9348C10.7367 4.9348 11.3952 4.93481 11.991 4.94195C12.4052 4.94691 12.745 4.61517 12.7499 4.20099C12.7549 3.78681 12.4232 3.44702 12.009 3.44206Z" fill="#FAFAFA"/>
</svg>
