<svg width="18" height="22" viewBox="0 0 18 22" fill="none" xmlns="http://www.w3.org/2000/svg">
<path d="M9 0.25C6.37665 0.25 4.25 2.37665 4.25 5V9C4.25 11.6234 6.37665 13.75 9 13.75C11.6234 13.75 13.75 11.6234 13.75 9V5C13.75 2.37665 11.6234 0.25 9 0.25Z" fill="#FAFAFA"/>
<path d="M1.75 9C1.75 8.58579 1.41421 8.25 1 8.25C0.585786 8.25 0.25 8.58579 0.25 9C0.25 13.5798 3.7686 17.3379 8.25 17.7183V19.953C8.03356 19.9815 7.81835 20.0223 7.60542 20.0756L6.8181 20.2724C6.41625 20.3729 6.17193 20.7801 6.27239 21.1819C6.37285 21.5837 6.78006 21.8281 7.1819 21.7276L7.96922 21.5308C8.30761 21.4462 8.6538 21.4039 9 21.4039C9.3462 21.4039 9.69239 21.4462 10.0308 21.5308L10.8181 21.7276C11.2199 21.8281 11.6271 21.5837 11.7276 21.1819C11.8281 20.7801 11.5837 20.3729 11.1819 20.2724L10.3946 20.0756C10.1817 20.0223 9.96644 19.9815 9.75 19.953V17.7183C14.2314 17.3379 17.75 13.5798 17.75 9C17.75 8.58579 17.4142 8.25 17 8.25C16.5858 8.25 16.25 8.58579 16.25 9C16.25 13.0041 13.0041 16.25 9 16.25C4.99594 16.25 1.75 13.0041 1.75 9Z" fill="#FAFAFA"/>
</svg>
