<svg width="24" height="16" viewBox="0 0 24 16" fill="none" xmlns="http://www.w3.org/2000/svg">
<path fill-rule="evenodd" clip-rule="evenodd" d="M6.48954 0.25C3.13576 0.25 0.559514 3.22043 1.03381 6.54051L1.26471 8.15678L2.72098 13.2537C3.14314 14.7313 4.49365 15.75 6.03034 15.75C7.20146 15.75 8.29221 15.1545 8.9255 14.1694L9.29986 13.587C10.5634 11.6216 13.4365 11.6216 14.7 13.587L14.929 13.9433C15.6529 15.0693 16.8997 15.75 18.2383 15.75C20.1962 15.75 21.8561 14.3104 22.1329 12.3722L22.966 6.54051C23.4403 3.22043 20.8641 0.25 17.5103 0.25C16.7392 0.25 15.9767 0.41182 15.272 0.724996L14.741 0.960988C13.7157 1.41669 13.3006 1.597 12.8825 1.68577C12.3006 1.80929 11.6993 1.80929 11.1174 1.68577C10.6992 1.597 10.2841 1.41669 9.25881 0.960987L8.72782 0.724995C8.02318 0.411819 7.26065 0.25 6.48954 0.25ZM6.99991 4.25C7.41412 4.25 7.74991 4.58579 7.74991 5V6.25H8.99991C9.41412 6.25 9.74991 6.58579 9.74991 7C9.74991 7.41421 9.41412 7.75 8.99991 7.75H7.74991V9C7.74991 9.41421 7.41412 9.75 6.99991 9.75C6.58569 9.75 6.24991 9.41421 6.24991 9V7.75H4.99991C4.58569 7.75 4.24991 7.41421 4.24991 7C4.24991 6.58579 4.58569 6.25 4.99991 6.25H6.24991V5C6.24991 4.58579 6.58569 4.25 6.99991 4.25ZM17 6C17.5523 6 18 5.55228 18 5C18 4.44772 17.5523 4 17 4C16.4477 4 16 4.44772 16 5C16 5.55228 16.4477 6 17 6ZM15 8C15.5523 8 16 7.55228 16 7C16 6.44772 15.5523 6 15 6C14.4477 6 14 6.44772 14 7C14 7.55228 14.4477 8 15 8ZM20 7C20 7.55228 19.5523 8 19 8C18.4477 8 18 7.55228 18 7C18 6.44772 18.4477 6 19 6C19.5523 6 20 6.44772 20 7ZM17 10C17.5523 10 18 9.55228 18 9C18 8.44772 17.5523 8 17 8C16.4477 8 16 8.44772 16 9C16 9.55228 16.4477 10 17 10Z" fill="#FAFAFA"/>
</svg>
