<svg width="24" height="16" viewBox="0 0 24 16" fill="none" xmlns="http://www.w3.org/2000/svg">
<path d="M7.74992 5C7.74992 4.58579 7.41414 4.25 6.99992 4.25C6.58571 4.25 6.24992 4.58579 6.24992 5V6.25H4.99992C4.58571 6.25 4.24992 6.58579 4.24992 7C4.24992 7.41421 4.58571 7.75 4.99992 7.75H6.24992V9C6.24992 9.41421 6.58571 9.75 6.99992 9.75C7.41414 9.75 7.74992 9.41421 7.74992 9V7.75H8.99992C9.41414 7.75 9.74992 7.41421 9.74992 7C9.74992 6.58579 9.41414 6.25 8.99992 6.25H7.74992V5Z" fill="#FAFAFA"/>
<path fill-rule="evenodd" clip-rule="evenodd" d="M6.48954 0.25C3.13576 0.25 0.559514 3.22043 1.03381 6.54051L1.26471 8.15678L2.72098 13.2537C3.14314 14.7313 4.49365 15.75 6.03034 15.75C7.20146 15.75 8.29221 15.1545 8.9255 14.1694L9.29986 13.587C10.5634 11.6216 13.4365 11.6216 14.7 13.587L14.929 13.9433C15.6529 15.0693 16.8997 15.75 18.2383 15.75C20.1962 15.75 21.8561 14.3104 22.1329 12.3722L22.966 6.54051C23.4403 3.22043 20.8641 0.25 17.5103 0.25C16.7392 0.25 15.9767 0.41182 15.272 0.724996L14.741 0.960988C13.7157 1.41669 13.3006 1.597 12.8825 1.68577C12.3006 1.80929 11.6993 1.80929 11.1174 1.68577C10.6992 1.597 10.2841 1.41669 9.25881 0.960987L8.72782 0.724995C8.02318 0.411819 7.26065 0.25 6.48954 0.25ZM2.51874 6.32838C2.17353 3.91195 4.04858 1.75 6.48954 1.75C7.05077 1.75 7.60576 1.86778 8.11862 2.09571L8.73053 2.36768C9.64955 2.77625 10.215 3.02764 10.8059 3.15307C11.5931 3.32019 12.4067 3.32019 13.1939 3.15307C13.7848 3.02764 14.3503 2.77624 15.2693 2.36768L15.8812 2.09571C16.3941 1.86778 16.9491 1.75 17.5103 1.75C19.9513 1.75 21.8263 3.91195 21.4811 6.32838L20.648 12.1601C20.4767 13.3593 19.4497 14.25 18.2383 14.25C17.4101 14.25 16.6386 13.8288 16.1908 13.1321L15.9618 12.7759C14.1078 9.89195 9.89207 9.89195 8.0381 12.7759L7.66373 13.3582C7.30644 13.914 6.69106 14.25 6.03034 14.25C5.16337 14.25 4.40144 13.6753 4.16327 12.8417L2.73514 7.84322L2.51874 6.32838Z" fill="#FAFAFA"/>
<path d="M18 5C18 5.55228 17.5523 6 17 6C16.4477 6 16 5.55228 16 5C16 4.44772 16.4477 4 17 4C17.5523 4 18 4.44772 18 5Z" fill="#FAFAFA"/>
<path d="M16 7C16 7.55228 15.5523 8 15 8C14.4477 8 14 7.55228 14 7C14 6.44772 14.4477 6 15 6C15.5523 6 16 6.44772 16 7Z" fill="#FAFAFA"/>
<path d="M20 7C20 7.55228 19.5523 8 19 8C18.4477 8 18 7.55228 18 7C18 6.44772 18.4477 6 19 6C19.5523 6 20 6.44772 20 7Z" fill="#FAFAFA"/>
<path d="M18 9C18 9.55228 17.5523 10 17 10C16.4477 10 16 9.55228 16 9C16 8.44772 16.4477 8 17 8C17.5523 8 18 8.44772 18 9Z" fill="#FAFAFA"/>
</svg>
