<svg width="21" height="22" viewBox="0 0 21 22" fill="none" xmlns="http://www.w3.org/2000/svg">
<path fill-rule="evenodd" clip-rule="evenodd" d="M20.4689 6.36431C21.08 3.17771 18.2824 0.380092 15.0958 0.99123L5.94673 2.74587C3.95789 3.1273 2.36735 4.63275 1.86202 6.58892C0.853112 10.4945 4.47515 14.0639 8.36424 12.9203C8.47164 12.8887 8.57143 12.9885 8.53984 13.0959C7.39617 16.985 10.9656 20.607 14.8712 19.5981C16.8274 19.0928 18.3328 17.5022 18.7142 15.5134L20.4689 6.36431ZM15.3783 2.46438C17.5237 2.05294 19.4072 3.93642 18.9957 6.08178L17.2411 15.2308C16.9697 16.6457 15.8955 17.7843 14.496 18.1458C11.6989 18.8683 9.16949 16.2715 9.97891 13.519C10.3454 12.2727 9.18743 11.1147 7.94105 11.4812C5.18864 12.2906 2.59178 9.7612 3.31435 6.96409C3.67585 5.56466 4.81437 4.49038 6.22926 4.21903L15.3783 2.46438Z" fill="#FAFAFA"/>
<path d="M2.94454 15.3336C3.23744 15.0407 3.23744 14.5658 2.94454 14.2729C2.65165 13.98 2.17678 13.98 1.88388 14.2729L0.46967 15.6872C0.176777 15.98 0.176777 16.4549 0.46967 16.7478C0.762563 17.0407 1.23744 17.0407 1.53033 16.7478L2.94454 15.3336Z" fill="#FAFAFA"/>
<path d="M6.48008 16.0407C6.77297 15.7478 6.77297 15.2729 6.48008 14.98C6.18718 14.6872 5.71231 14.6872 5.41942 14.98L4.0052 16.3943C3.71231 16.6872 3.71231 17.162 4.0052 17.4549C4.2981 17.7478 4.77297 17.7478 5.06586 17.4549L6.48008 16.0407Z" fill="#FAFAFA"/>
<path d="M7.18718 19.5762C7.48008 19.2833 7.48008 18.8085 7.18718 18.5156C6.89429 18.2227 6.41942 18.2227 6.12652 18.5156L4.71231 19.9298C4.41942 20.2227 4.41942 20.6976 4.71231 20.9905C5.0052 21.2833 5.48008 21.2833 5.77297 20.9905L7.18718 19.5762Z" fill="#FAFAFA"/>
</svg>
