<svg width="22" height="22" viewBox="0 0 22 22" fill="none" xmlns="http://www.w3.org/2000/svg">
<path fill-rule="evenodd" clip-rule="evenodd" d="M10.7148 0.0305113C10.9048 0.0210796 11.0951 0.0210796 11.285 0.0305112C12.0184 0.0669214 12.6936 0.280012 13.4462 0.629287C14.1789 0.969306 15.0303 1.46087 16.1075 2.08276L16.1685 2.11802C17.2457 2.73992 18.0972 3.2315 18.758 3.69604C19.4368 4.17323 19.9589 4.65139 20.3571 5.26829C20.4603 5.42809 20.5555 5.59292 20.6423 5.76215C20.9774 6.41546 21.1305 7.10672 21.2043 7.93318C21.2762 8.73774 21.2762 9.72087 21.2762 10.9647V11.0351C21.2762 12.2789 21.2762 13.2621 21.2043 14.0667C21.1305 14.8931 20.9774 15.5844 20.6423 16.2377C20.5555 16.4069 20.4603 16.5718 20.3571 16.7316C19.9589 17.3485 19.4368 17.8266 18.758 18.3038C18.0972 18.7684 17.2457 19.26 16.1685 19.8819L16.1076 19.9171C15.0304 20.539 14.179 21.0306 13.4462 21.3706C12.6936 21.7199 12.0184 21.9329 11.285 21.9694C11.0951 21.9788 10.9048 21.9788 10.7148 21.9694C9.98143 21.9329 9.30626 21.7199 8.5536 21.3706C7.82089 21.0306 6.96947 20.539 5.89233 19.9171L5.83121 19.8818C4.75413 19.26 3.90262 18.7683 3.24182 18.3038C2.56301 17.8266 2.04089 17.3485 1.64268 16.7316C1.53953 16.5718 1.44437 16.407 1.35755 16.2377C1.0224 15.5844 0.869361 14.8932 0.795514 14.0667C0.723622 13.2621 0.723627 12.279 0.723633 11.0352V10.9647C0.723627 9.72091 0.723621 8.73775 0.795513 7.93318C0.86936 7.10672 1.0224 6.41547 1.35755 5.76215C1.44436 5.59292 1.53952 5.4281 1.64268 5.2683C2.04089 4.65139 2.56301 4.17323 3.24182 3.69604C3.90266 3.2315 4.75409 2.73993 5.83127 2.11803L5.89225 2.08282C6.96943 1.4609 7.82087 0.969315 8.5536 0.629287C9.30626 0.280012 9.98142 0.0669216 10.7148 0.0305113ZM11.7499 6.99994C11.7499 6.58573 11.4142 6.24994 10.9999 6.24994C10.5857 6.24994 10.2499 6.58573 10.2499 6.99994V14.9999C10.2499 15.4142 10.5857 15.7499 10.9999 15.7499C11.4142 15.7499 11.7499 15.4142 11.7499 14.9999V6.99994ZM8.74994 7.99994C8.74994 7.58573 8.41415 7.24994 7.99994 7.24994C7.58573 7.24994 7.24994 7.58573 7.24994 7.99994L7.24994 13.9999C7.24994 14.4142 7.58573 14.7499 7.99994 14.7499C8.41415 14.7499 8.74994 14.4142 8.74994 13.9999V7.99994ZM14.7499 7.99994C14.7499 7.58573 14.4142 7.24994 13.9999 7.24994C13.5857 7.24994 13.2499 7.58573 13.2499 7.99994V13.9999C13.2499 14.4142 13.5857 14.7499 13.9999 14.7499C14.4142 14.7499 14.7499 14.4142 14.7499 13.9999V7.99994ZM5.74994 9.99994C5.74994 9.58573 5.41415 9.24994 4.99994 9.24994C4.58573 9.24994 4.24994 9.58573 4.24994 9.99994L4.24994 11.9999C4.24994 12.4142 4.58573 12.7499 4.99994 12.7499C5.41415 12.7499 5.74994 12.4142 5.74994 11.9999V9.99994ZM17.7499 9.99994C17.7499 9.58573 17.4142 9.24994 16.9999 9.24994C16.5857 9.24994 16.2499 9.58573 16.2499 9.99994V11.9999C16.2499 12.4142 16.5857 12.7499 16.9999 12.7499C17.4142 12.7499 17.7499 12.4142 17.7499 11.9999V9.99994Z" fill="#FAFAFA"/>
</svg>
