<svg width="22" height="22" viewBox="0 0 22 22" fill="none" xmlns="http://www.w3.org/2000/svg">
<path d="M11.7499 6.99993C11.7499 6.58572 11.4141 6.24993 10.9999 6.24993C10.5857 6.24993 10.2499 6.58572 10.2499 6.99993V14.9999C10.2499 15.4141 10.5857 15.7499 10.9999 15.7499C11.4141 15.7499 11.7499 15.4141 11.7499 14.9999V6.99993Z" fill="#FAFAFA"/>
<path d="M8.74991 7.99993C8.74991 7.58572 8.41413 7.24993 7.99991 7.24993C7.5857 7.24993 7.24991 7.58572 7.24991 7.99993L7.24991 13.9999C7.24991 14.4141 7.5857 14.7499 7.99991 14.7499C8.41413 14.7499 8.74991 14.4141 8.74991 13.9999L8.74991 7.99993Z" fill="#FAFAFA"/>
<path d="M14.7499 7.99993C14.7499 7.58572 14.4141 7.24993 13.9999 7.24993C13.5857 7.24993 13.2499 7.58572 13.2499 7.99993V13.9999C13.2499 14.4141 13.5857 14.7499 13.9999 14.7499C14.4141 14.7499 14.7499 14.4141 14.7499 13.9999V7.99993Z" fill="#FAFAFA"/>
<path d="M5.74991 9.99993C5.74991 9.58572 5.41413 9.24993 4.99991 9.24993C4.5857 9.24993 4.24991 9.58572 4.24991 9.99993L4.24991 11.9999C4.24991 12.4141 4.5857 12.7499 4.99991 12.7499C5.41413 12.7499 5.74991 12.4141 5.74991 11.9999V9.99993Z" fill="#FAFAFA"/>
<path d="M17.7499 9.99993C17.7499 9.58572 17.4141 9.24993 16.9999 9.24993C16.5857 9.24993 16.2499 9.58572 16.2499 9.99993V11.9999C16.2499 12.4141 16.5857 12.7499 16.9999 12.7499C17.4141 12.7499 17.7499 12.4141 17.7499 11.9999V9.99993Z" fill="#FAFAFA"/>
<path fill-rule="evenodd" clip-rule="evenodd" d="M11.285 0.0305112C11.0951 0.0210796 10.9048 0.0210796 10.7148 0.0305113C9.98142 0.0669216 9.30626 0.280012 8.5536 0.629287C7.82087 0.969315 6.96944 1.4609 5.89227 2.08281L5.83127 2.11803C4.75409 2.73993 3.90266 3.2315 3.24182 3.69604C2.56301 4.17323 2.04089 4.65139 1.64268 5.2683C1.53952 5.4281 1.44436 5.59292 1.35755 5.76215C1.0224 6.41547 0.86936 7.10672 0.795513 7.93318C0.723621 8.73775 0.723627 9.72091 0.723633 10.9647V11.0352C0.723627 12.279 0.723622 13.2621 0.795514 14.0667C0.869361 14.8932 1.0224 15.5844 1.35755 16.2377C1.44437 16.407 1.53953 16.5718 1.64268 16.7316C2.04089 17.3485 2.56301 17.8266 3.24182 18.3038C3.90264 18.7684 4.75403 19.2599 5.83115 19.8818L5.89224 19.917C6.96939 20.5389 7.82089 21.0306 8.5536 21.3706C9.30626 21.7199 9.98143 21.9329 10.7148 21.9694C10.9048 21.9788 11.0951 21.9788 11.285 21.9694C12.0184 21.9329 12.6936 21.7199 13.4462 21.3706C14.179 21.0306 15.0304 20.539 16.1076 19.9171L16.1685 19.8819C17.2457 19.26 18.0972 18.7684 18.758 18.3038C19.4368 17.8266 19.9589 17.3485 20.3571 16.7316C20.4603 16.5718 20.5555 16.4069 20.6423 16.2377C20.9774 15.5844 21.1305 14.8931 21.2043 14.0667C21.2762 13.2621 21.2762 12.279 21.2762 11.0352V10.9647C21.2762 9.72094 21.2762 8.73774 21.2043 7.93318C21.1305 7.10672 20.9774 6.41546 20.6423 5.76215C20.5555 5.59292 20.4603 5.42809 20.3571 5.26829C19.9589 4.65139 19.4368 4.17323 18.758 3.69604C18.0972 3.2315 17.2457 2.73992 16.1685 2.11802L16.1075 2.0828C15.0304 1.4609 14.1789 0.96931 13.4462 0.629287C12.6936 0.280012 12.0184 0.0669214 11.285 0.0305112ZM10.7892 1.52867C10.9296 1.52169 11.0702 1.52169 11.2107 1.52867C11.6835 1.55214 12.1629 1.6874 12.8148 1.98992C13.4797 2.29848 14.2737 2.75606 15.3881 3.39945C16.5024 4.04285 17.2957 4.50162 17.8954 4.92318C18.4833 5.33648 18.8402 5.68404 19.0969 6.08179C19.1731 6.1999 19.2435 6.32173 19.3076 6.44681C19.5237 6.86803 19.6463 7.35086 19.7103 8.06668C19.7755 8.7968 19.7762 9.71315 19.7762 10.9999C19.7762 12.2867 19.7755 13.2031 19.7103 13.9332C19.6463 14.649 19.5237 15.1318 19.3076 15.5531C19.2435 15.6781 19.1731 15.8 19.0969 15.9181C18.8402 16.3158 18.4833 16.6634 17.8954 17.0767C17.2957 17.4983 16.5024 17.957 15.3881 18.6004C14.2737 19.2438 13.4797 19.7014 12.8148 20.01C12.1629 20.3125 11.6835 20.4477 11.2107 20.4712C11.0702 20.4782 10.9296 20.4782 10.7892 20.4712C10.3163 20.4477 9.83691 20.3125 9.18501 20.01C8.52009 19.7014 7.72616 19.2438 6.61177 18.6004C5.49738 17.957 4.70415 17.4983 4.10446 17.0767C3.51653 16.6634 3.15967 16.3158 2.90293 15.9181C2.82668 15.8 2.75635 15.6781 2.69218 15.5531C2.4761 15.1318 2.35352 14.649 2.28956 13.9332C2.22432 13.2031 2.22363 12.2867 2.22363 10.9999C2.22363 9.71315 2.22432 8.7968 2.28956 8.06668C2.35352 7.35086 2.4761 6.86803 2.69218 6.44681C2.75635 6.32173 2.82668 6.1999 2.90293 6.08179C3.15967 5.68405 3.51653 5.33648 4.10446 4.92318C4.70414 4.50162 5.49738 4.04285 6.61177 3.39945C7.72616 2.75606 8.52009 2.29848 9.18501 1.98992C9.83691 1.6874 10.3163 1.55214 10.7892 1.52867Z" fill="#FAFAFA"/>
</svg>
