<svg width="20" height="24" viewBox="0 0 20 24" fill="none" xmlns="http://www.w3.org/2000/svg">
<path d="M13.7993 2.26404C11.9781 -0.421354 8.02169 -0.421346 6.20057 2.26406L0.97194 9.97413C-0.164671 11.6502 -0.224844 13.8394 0.801056 15.5799C2.84931 19.055 7.93446 19.0178 9.87575 15.4591C9.92936 15.3608 10.0705 15.3608 10.1241 15.4591C12.0654 19.0178 17.1505 19.055 19.1988 15.5799C20.2247 13.8394 20.1645 11.6502 19.0279 9.97412L13.7993 2.26404Z" fill="#FAFAFA"/>
<path d="M10.7499 18.9979C10.7499 18.5837 10.4142 18.2479 9.99994 18.2479C9.58573 18.2479 9.24994 18.5837 9.24994 18.9979V20.9979C9.24994 21.4121 9.58573 21.7479 9.99994 21.7479C10.4142 21.7479 10.7499 21.4121 10.7499 20.9979V18.9979Z" fill="#FAFAFA"/>
<path d="M6.99994 20.2479C7.41415 20.2479 7.74994 20.5837 7.74994 20.9979L7.74994 22.9979C7.74994 23.4121 7.41415 23.7479 6.99994 23.7479C6.58573 23.7479 6.24994 23.4121 6.24994 22.9979L6.24994 20.9979C6.24994 20.5837 6.58573 20.2479 6.99994 20.2479Z" fill="#FAFAFA"/>
<path d="M13.7499 20.9979C13.7499 20.5837 13.4142 20.2479 12.9999 20.2479C12.5857 20.2479 12.2499 20.5837 12.2499 20.9979V22.9979C12.2499 23.4121 12.5857 23.7479 12.9999 23.7479C13.4142 23.7479 13.7499 23.4121 13.7499 22.9979V20.9979Z" fill="#FAFAFA"/>
</svg>
