<svg width="22" height="24" viewBox="0 0 22 24" fill="none" xmlns="http://www.w3.org/2000/svg">
<path fill-rule="evenodd" clip-rule="evenodd" d="M7.43562 2.75683C8.45899 -0.829098 13.5409 -0.829098 14.5643 2.75683C14.8911 3.90199 16.0676 4.58125 17.2228 4.2917C20.84 3.385 23.381 7.78611 20.7872 10.4653C19.9588 11.3209 19.9588 12.6795 20.7872 13.5351C23.381 16.2143 20.84 20.6154 17.2228 19.7087C16.0676 19.4192 14.8911 20.0984 14.5643 21.2436C13.5409 24.8295 8.45899 24.8295 7.43562 21.2436C7.1088 20.0984 5.93229 19.4192 4.77714 19.7087C1.15995 20.6154 -1.38103 16.2143 1.21279 13.5351C2.04112 12.6795 2.04112 11.3209 1.21279 10.4653C-1.38102 7.78611 1.15995 3.385 4.77714 4.2917C5.93229 4.58125 7.1088 3.90199 7.43562 2.75683ZM15.5762 9.48035C15.8413 9.16214 15.7983 8.68922 15.4801 8.42405C15.1619 8.15887 14.689 8.20187 14.4238 8.52008L10.9603 12.6763C10.5895 13.1213 10.3618 13.3917 10.1742 13.5611C10.0872 13.6397 10.0356 13.671 10.0109 13.6829C10.0058 13.6854 10.0023 13.6868 10 13.6877C9.99774 13.6868 9.99416 13.6854 9.98913 13.6829C9.9644 13.671 9.9128 13.6397 9.8258 13.5611C9.63822 13.3917 9.41052 13.1213 9.03972 12.6763L7.57617 10.9201C7.31099 10.6019 6.83807 10.5589 6.51986 10.824C6.20165 11.0892 6.15866 11.5621 6.42383 11.8804L7.91933 13.675C8.2478 14.0692 8.54391 14.4246 8.82051 14.6744C9.12145 14.9461 9.50051 15.1882 10 15.1882C10.4995 15.1882 10.8786 14.9461 11.1795 14.6744C11.4561 14.4246 11.7522 14.0692 12.0807 13.675L15.5762 9.48035Z" fill="#FAFAFA"/>
</svg>
