<svg width="22" height="20" viewBox="0 0 22 20" fill="none" xmlns="http://www.w3.org/2000/svg">
<path d="M15.7439 3.29888C15.3567 3.15174 14.9235 3.34635 14.7764 3.73354C14.6292 4.12074 14.8239 4.55391 15.2111 4.70105C15.5718 4.83812 15.9483 5.07036 16.3266 5.44541C16.8083 5.92304 17.1132 6.44654 17.2832 6.9977C17.4052 7.39352 17.8251 7.61545 18.2209 7.49339C18.6167 7.37133 18.8386 6.95151 18.7166 6.55569C18.4729 5.76564 18.037 5.02896 17.3827 4.38021C16.8664 3.8684 16.3146 3.51577 15.7439 3.29888Z" fill="#FAFAFA"/>
<path fill-rule="evenodd" clip-rule="evenodd" d="M9.80094 1.51257C8.91273 0.949138 7.69663 0.363369 6.34626 0.264512C4.95836 0.162909 3.48046 0.581733 2.1529 1.93557C0.585622 3.53386 0.0939045 5.50688 0.291356 7.50265C0.486531 9.47541 1.35186 11.4808 2.50596 13.2578C3.66315 15.0396 5.14134 16.6392 6.6243 17.8008C8.07465 18.9368 9.65268 19.75 10.9999 19.75C12.347 19.75 13.9251 18.9368 15.3754 17.8008C16.8584 16.6392 18.3366 15.0396 19.4938 13.2578C20.6479 11.4808 21.5132 9.47542 21.7084 7.50265C21.9058 5.50689 21.4141 3.53386 19.8468 1.93557C18.5193 0.581747 17.0414 0.162926 15.6535 0.264528C14.3031 0.363382 13.087 0.949145 12.1988 1.51257C11.4984 1.95689 10.5014 1.95689 9.80094 1.51257ZM3.2239 2.98579C4.23053 1.95923 5.27121 1.68983 6.23674 1.76051C7.23981 1.83394 8.212 2.28097 8.99745 2.77922C10.1884 3.53467 11.8114 3.53467 13.0023 2.77922C13.7878 2.28098 14.76 1.83395 15.763 1.76052C16.7286 1.68984 17.7692 1.95925 18.7758 2.98579C19.9791 4.21283 20.3774 5.71987 20.2157 7.35497C20.0516 9.01307 19.3084 10.7893 18.2358 12.4408C17.1663 14.0876 15.7995 15.5632 14.4505 16.6199C13.0688 17.7021 11.8277 18.25 10.9999 18.25C10.172 18.25 8.9309 17.7021 7.54924 16.6199C6.20019 15.5632 4.83346 14.0876 3.76393 12.4408C2.69131 10.7893 1.94811 9.01307 1.78407 7.35497C1.6223 5.71987 2.02067 4.21282 3.2239 2.98579Z" fill="#FAFAFA"/>
</svg>
