<svg width="20" height="20" viewBox="0 0 20 20" fill="none" xmlns="http://www.w3.org/2000/svg">
<path d="M3.42183 5.84948C6.41657 4.34256 10.1604 4.84052 12.6601 7.34336C15.0979 9.78429 15.6313 13.41 14.2601 16.3693C14.4505 16.277 14.6389 16.1736 14.825 16.0585C15.0097 15.9441 15.1021 15.887 15.1719 15.8593C15.3055 15.8064 15.4067 15.791 15.5499 15.8021C15.6248 15.8079 15.7097 15.8299 15.8793 15.874C16.9472 16.1511 17.4812 16.2897 17.8659 16.2113C18.5335 16.0753 19.0553 15.5528 19.1912 14.8843C19.2694 14.4992 19.1311 13.9646 18.8543 12.8954C18.8103 12.7254 18.7883 12.6404 18.7825 12.5652C18.7715 12.4218 18.7871 12.3192 18.8403 12.1856C18.8681 12.1155 18.9251 12.0237 19.0391 11.8401C21.0975 8.52365 19.5045 4.50314 17.4937 2.48982C14.1782 -0.82994 8.80253 -0.82994 5.48694 2.48982C4.51173 3.46626 3.82336 4.62113 3.42183 5.84948Z" fill="#FAFAFA"/>
<path fill-rule="evenodd" clip-rule="evenodd" d="M4.26243 19.2246C6.99611 20.9161 10.3643 19.5411 11.9526 17.9508C14.6831 15.2169 14.6831 10.7844 11.9526 8.05044C9.22213 5.31652 4.79514 5.31652 2.06466 8.05044C0.408718 9.70847 -0.903183 13.0195 0.791971 15.7506C0.885849 15.9019 0.932789 15.9775 0.955748 16.0352C0.999508 16.1453 1.01237 16.2297 1.00332 16.3478C0.998573 16.4098 0.980457 16.4797 0.944227 16.6197C0.716288 17.5002 0.602314 17.9405 0.666782 18.2577C0.778677 18.8082 1.20837 19.2384 1.75819 19.3505C2.07497 19.415 2.51469 19.3009 3.39412 19.0727C3.53386 19.0364 3.60376 19.0183 3.66544 19.0135C3.78336 19.0044 3.86676 19.017 3.97672 19.0606C4.03424 19.0834 4.1103 19.1305 4.26243 19.2246ZM9.00047 13C9.00047 13.5523 9.44819 14 10.0005 14C10.5528 14 11.0005 13.5523 11.0005 13C11.0005 12.4477 10.5528 12 10.0005 12C9.44819 12 9.00047 12.4477 9.00047 13ZM6.00047 13C6.00047 13.5523 6.44819 14 7.00047 14C7.55276 14 8.00047 13.5523 8.00047 13C8.00047 12.4477 7.55276 12 7.00047 12C6.44819 12 6.00047 12.4477 6.00047 13ZM4.00047 14C3.44819 14 3.00047 13.5523 3.00047 13C3.00047 12.4477 3.44819 12 4.00047 12C4.55276 12 5.00047 12.4477 5.00047 13C5.00047 13.5523 4.55276 14 4.00047 14Z" fill="#FAFAFA"/>
</svg>
