<svg width="22" height="22" viewBox="0 0 22 22" fill="none" xmlns="http://www.w3.org/2000/svg">
<path fill-rule="evenodd" clip-rule="evenodd" d="M0 9C0 4.02944 4.02944 0 9 0C13.9706 0 18 4.02944 18 9C18 13.9706 13.9706 18 9 18C4.02944 18 0 13.9706 0 9ZM7.95856 2.9442C8.02336 3.35331 7.74423 3.73749 7.33512 3.80229C5.51658 4.09032 4.09032 5.51658 3.80229 7.33512C3.73749 7.74423 3.35331 8.02336 2.9442 7.95856C2.53508 7.89376 2.25596 7.50958 2.32076 7.10047C2.71044 4.64008 4.64008 2.71044 7.10047 2.32076C7.50958 2.25596 7.89376 2.53508 7.95856 2.9442Z" fill="#FAFAFA"/>
<path d="M16.4697 16.4697C16.7626 16.1768 17.2374 16.1768 17.5303 16.4697L21.5302 20.4696C21.8231 20.7625 21.8231 21.2374 21.5302 21.5303C21.2373 21.8232 20.7625 21.8232 20.4696 21.5303L16.4697 17.5303C16.1768 17.2374 16.1768 16.7626 16.4697 16.4697Z" fill="#FAFAFA"/>
</svg>
