<svg width="21" height="22" viewBox="0 0 21 22" fill="none" xmlns="http://www.w3.org/2000/svg">
<path d="M20.4689 6.36382C21.08 3.17722 18.2824 0.379604 15.0958 0.990742L5.94673 2.74539C3.95789 3.12681 2.36735 4.63226 1.86202 6.58843C0.853112 10.494 4.47515 14.0635 8.36424 12.9198C8.47164 12.8882 8.57143 12.988 8.53984 13.0954C7.39617 16.9845 10.9656 20.6065 14.8712 19.5976C16.8274 19.0923 18.3328 17.5017 18.7142 15.5129L20.4689 6.36382Z" fill="#FAFAFA"/>
<path d="M2.94454 15.3331C3.23744 15.0402 3.23744 14.5653 2.94454 14.2725C2.65165 13.9796 2.17678 13.9796 1.88388 14.2725L0.46967 15.6867C0.176777 15.9796 0.176777 16.4544 0.46967 16.7473C0.762563 17.0402 1.23744 17.0402 1.53033 16.7473L2.94454 15.3331Z" fill="#FAFAFA"/>
<path d="M6.48008 14.9796C6.77297 15.2725 6.77297 15.7473 6.48008 16.0402L5.06586 17.4544C4.77297 17.7473 4.2981 17.7473 4.0052 17.4544C3.71231 17.1615 3.71231 16.6867 4.0052 16.3938L5.41942 14.9796C5.71231 14.6867 6.18718 14.6867 6.48008 14.9796Z" fill="#FAFAFA"/>
<path d="M7.18718 19.5758C7.48008 19.2829 7.48008 18.808 7.18718 18.5151C6.89429 18.2222 6.41942 18.2222 6.12652 18.5151L4.71231 19.9293C4.41942 20.2222 4.41942 20.6971 4.71231 20.99C5.0052 21.2829 5.48008 21.2829 5.77297 20.99L7.18718 19.5758Z" fill="#FAFAFA"/>
</svg>
